<svg width="22" height="21" viewBox="0 0 22 21" fill="none" xmlns="http://www.w3.org/2000/svg">
<path d="M16.9227 0.545288C17.0857 0.588027 17.2745 0.697906 17.3914 0.822632C17.8389 1.30101 17.9801 2.09396 17.9871 2.87146C17.9937 3.60328 17.8792 4.34283 17.7752 4.84314H20.9354C21.0232 4.84314 21.0995 4.8595 21.16 4.90076C21.2212 4.94266 21.2569 5.00292 21.2781 5.06873C21.2988 5.13292 21.307 5.20695 21.3104 5.28357C21.3137 5.3605 21.3123 5.44843 21.3123 5.53845C21.3122 7.05791 20.5861 8.0404 19.6463 8.63806C18.7358 9.21672 17.6257 9.43345 16.7801 9.4447L15.4607 15.4935C15.461 15.4952 15.4613 15.4975 15.4617 15.4994C15.4642 15.5098 15.4683 15.5243 15.4734 15.5424C15.484 15.579 15.5008 15.6314 15.5242 15.7015C15.5712 15.8422 15.6466 16.0544 15.7635 16.3597C15.913 16.7502 16.0424 17.2846 16.0086 17.8197C15.9745 18.3565 15.7743 18.899 15.2625 19.2933C13.6379 20.545 12.1349 20.4822 11.4246 20.4701C10.803 20.4825 9.1917 20.542 7.57109 19.2933C7.05947 18.899 6.86007 18.3564 6.82598 17.8197C6.79213 17.2847 6.92061 16.7502 7.07012 16.3597C7.1871 16.0543 7.26342 15.8422 7.31035 15.7015C7.33376 15.6314 7.35062 15.579 7.36113 15.5424C7.36629 15.5244 7.36936 15.5098 7.37188 15.4994C7.37233 15.4975 7.37256 15.4951 7.37285 15.4935L6.05449 9.4447C5.20877 9.43349 4.09799 9.21691 3.18731 8.63806C2.24747 8.0404 1.52139 7.05791 1.52129 5.53845C1.52129 5.44843 1.52085 5.3605 1.52422 5.28357C1.52761 5.207 1.53482 5.13289 1.55547 5.06873C1.57675 5.00287 1.61327 4.94266 1.67461 4.90076C1.73494 4.85967 1.81065 4.84317 1.89824 4.84314H5.0584C4.95442 4.34283 4.8409 3.60328 4.84746 2.87146C4.85449 2.09397 4.99469 1.30101 5.44219 0.822632C5.55903 0.697862 5.7478 0.588064 5.91094 0.545288C5.99107 0.524327 6.07972 0.51545 6.15313 0.543335C6.19163 0.55807 6.22706 0.583475 6.25176 0.62146C6.2761 0.659318 6.28691 0.705271 6.28691 0.752319C6.28723 0.885105 6.36129 1.65671 6.62676 2.52576C6.89109 3.39099 7.33952 4.33183 8.07402 4.84314H14.7596C15.4941 4.33185 15.9425 3.39096 16.2068 2.52576C16.4723 1.65671 16.5464 0.885107 16.5467 0.752319C16.5467 0.70528 16.5575 0.659314 16.5818 0.62146C16.6065 0.583501 16.642 0.558109 16.6805 0.543335C16.7538 0.515481 16.8426 0.524377 16.9227 0.545288ZM8.64629 7.59705C8.07072 7.59705 7.66657 8.16428 7.8543 8.70837L10.7303 17.0433C10.7886 17.2121 10.9473 17.3254 11.1258 17.3256H11.7029C11.8816 17.3256 12.0411 17.2122 12.0994 17.0433L14.9793 8.70837C15.1672 8.16428 14.7629 7.59709 14.1873 7.59705H8.64629Z" fill="#AA5200"/>
<path d="M11.1261 17.3255C10.9474 17.3255 10.7883 17.2122 10.7301 17.0432L7.8542 8.70814C7.66647 8.16405 8.07064 7.59705 8.64621 7.59705H14.1872C14.7629 7.59705 15.1671 8.16434 14.9791 8.7085L12.0991 17.0434C12.0408 17.2122 11.8818 17.3255 11.7032 17.3255H11.1261Z" fill="#FCB776"/>
</svg>
