<svg width="21" height="21" viewBox="0 0 21 21" fill="none" xmlns="http://www.w3.org/2000/svg">
<path d="M10.0625 1.55176C11.3467 1.58133 12.5663 2.11863 13.4551 3.0459H13.4561C13.5519 3.14812 13.6439 3.25912 13.748 3.38574L13.873 3.53809L14.0674 3.57617C14.8194 3.7236 15.5056 4.10482 16.0283 4.66504L16.0332 4.66992C16.7077 5.37653 17.0825 6.31692 17.0801 7.29395C17.0778 8.27056 16.6982 9.20877 16.0205 9.91211L15.1221 10.8438H16.0195C15.7105 11.1981 15.1499 11.8139 14.457 12.4453C13.4136 13.3963 12.1691 14.2915 11.084 14.501L10.418 14.5596C8.28481 14.5266 6.70298 13.4848 4.22461 11.6191L4.8584 11.3828L4.28711 10.7803C3.79869 10.2656 3.53375 9.57918 3.55078 8.87012C3.56788 8.16098 3.8654 7.48736 4.37793 6.99707L4.37891 6.99609C4.51766 6.86289 4.67132 6.74555 4.83691 6.64648L5.09473 6.49219L5.10449 6.19238C5.14669 4.93934 5.68277 3.75382 6.5957 2.89453L6.59863 2.89258C7.52977 2.00433 8.776 1.52207 10.0625 1.55176Z" fill="#98DB98" stroke="#1D771D" stroke-width="1.1"/>
<path d="M16.4453 10.2941H16.416C17.1925 9.48857 17.6276 8.41397 17.6302 7.29522C17.633 6.1763 17.2033 5.0996 16.4307 4.29029C15.8289 3.64511 15.0387 3.20639 14.1728 3.0367C14.0702 2.91201 13.9676 2.78749 13.8576 2.67016C12.8677 1.63452 11.5071 1.03432 10.0748 1.00144C8.64253 0.968387 7.25556 1.50542 6.21896 2.49427C5.2002 3.45317 4.60193 4.77596 4.55497 6.17437C4.35386 6.29464 4.16683 6.43716 3.99779 6.59947C3.38008 7.19032 3.02155 8.00194 3.00094 8.85662C2.98033 9.7113 3.29924 10.5391 3.88783 11.1593C3.77051 11.2033 3.70456 11.2399 3.6972 11.2399V11.2398C3.58151 11.2956 3.50166 11.4059 3.48464 11.533C3.47335 11.661 3.52882 11.7856 3.63126 11.8629C6.24841 13.8422 8.0079 15.081 10.4342 15.1103V15.1105C10.6092 15.9674 10.3926 16.8577 9.84331 17.5383L9.83823 17.5442C9.83169 17.5515 9.8294 17.5618 9.82285 17.5699C9.80043 17.5952 9.78178 17.6237 9.76705 17.6541C9.31054 18.2903 8.77054 18.8624 8.16167 19.3549C8.08722 19.4168 8.04058 19.5058 8.03224 19.6023C8.02406 19.6987 8.05482 19.7944 8.11766 19.8681C8.18524 19.9527 8.288 20.0014 8.39632 20C8.48255 19.9998 8.56584 19.9686 8.63081 19.9121C9.30431 19.3764 9.8947 18.7439 10.383 18.0354C11.3422 16.8417 12.6776 16.0083 14.1714 15.6712C14.372 15.6496 14.5175 15.4701 14.4969 15.2695C14.4735 15.0695 14.2951 14.9244 14.0945 14.9426C13.0153 15.1415 12.0056 15.6149 11.1622 16.317C11.2604 15.8993 11.2628 15.4647 11.1696 15.0458C13.6768 14.5767 16.5725 11.0505 16.7041 10.8892V10.8893C16.7888 10.7838 16.8086 10.64 16.7553 10.5154C16.7047 10.3868 16.5833 10.3001 16.4452 10.294L16.4453 10.2941ZM10.7714 13.2338C10.1504 12.2387 9.2216 11.4733 8.1261 11.0539C7.03077 10.6345 5.82836 10.5839 4.70161 10.9099C4.60179 10.8349 4.50852 10.7515 4.42295 10.6607C3.96526 10.1809 3.71735 9.53864 3.7339 8.87577C3.75043 8.21291 4.02991 7.58372 4.511 7.12738C4.68379 6.96211 4.87868 6.82138 5.09008 6.70946C5.21232 6.64859 5.28922 6.52341 5.28808 6.38694C5.27744 5.11487 5.79729 3.8958 6.72264 3.02281C7.61916 2.16784 8.81843 1.70362 10.057 1.73256C11.2955 1.76136 12.4718 2.2809 13.3277 3.1768C13.4523 3.30868 13.5623 3.4481 13.6723 3.58735H13.6721C13.7277 3.66197 13.8084 3.714 13.8994 3.73397C14.6658 3.85702 15.3696 4.23091 15.9008 4.79692C16.56 5.4917 16.9173 6.41965 16.8938 7.37742C16.8704 8.33498 16.4686 9.24445 15.7761 9.90635C15.6293 10.0456 15.4697 10.1708 15.2996 10.2802C14.3386 10.2757 13.3973 10.553 12.5926 11.078C11.7877 11.6029 11.1544 12.3525 10.7713 13.2338L10.7714 13.2338Z" fill="#1D771D"/>
<path d="M14.0547 14.9023C14.2776 14.8822 14.4783 15.0206 14.5449 15.2256L14.5654 15.3164V15.4121C14.5445 15.6242 14.3796 15.7989 14.1611 15.8271L14.1621 15.8281C12.6929 16.1598 11.3792 16.9784 10.4346 18.1514L10.2441 18.416C9.78968 19.026 9.25819 19.5757 8.66211 20.0498L8.66113 20.0488C8.57873 20.1189 8.47466 20.1578 8.36621 20.1582L8.36523 20.1592V20.1582C8.22738 20.1596 8.09723 20.0982 8.01074 19.9912V19.9922C7.93068 19.8984 7.89107 19.7762 7.90137 19.6533V19.6523C7.91209 19.5294 7.97164 19.4157 8.06641 19.3369L8.06738 19.3359C8.6682 18.8499 9.20158 18.2858 9.65234 17.6582C9.66789 17.6281 9.68691 17.5997 9.70898 17.5732L9.70996 17.5713C9.71105 17.5691 9.71372 17.5639 9.7168 17.5586C9.72019 17.5528 9.72531 17.5452 9.73242 17.5371L9.73633 17.5322C10.2655 16.8753 10.4745 16.0162 10.3057 15.1895L10.2832 15.0791L10.3945 15.0693L11.1299 15.0049L11.2168 14.9971L11.2363 15.083C11.3134 15.4293 11.3257 15.7858 11.2764 16.1357C12.089 15.5136 13.037 15.0893 14.0459 14.9033L14.0547 14.9014V14.9023Z" fill="#1D771D" stroke="#1D771D" stroke-width="0.2"/>
</svg>
