<svg width="21" height="21" viewBox="0 0 21 21" fill="none" xmlns="http://www.w3.org/2000/svg">
<g clip-path="url(#clip0_435_2403)">
<path d="M5.72727 6.20457C4.58182 3.91366 0.795455 2.38639 0 1.90912C1.13576 2.59468 2.18904 6.16755 2.84616 7.31428C1.635 8.92486 0.69889 12.4046 0.456578 13.6161C1.06582 13.3669 4.86059 10.9439 5.72727 9.45539C7.56577 10.7708 7.73938 13.0622 12.4125 12.9237C16.1511 12.813 18.9844 9.59963 19.729 8.3073L18.9387 7.97173L19.729 6.97978C17.8199 4.59342 15.4236 2.46392 12.0827 2.46392C9.41001 2.46392 6.84091 5.09094 5.72727 6.20457Z" fill="#FCB776" stroke="#AA5200"/>
<path d="M7.81956 12.2019C6.77985 10.1225 3.34303 8.73619 2.62101 8.30298C3.65192 8.92525 3.6383 12.3376 4.23475 13.3785C3.1354 14.8404 3.25538 17.8295 3.03544 18.9292C3.58844 18.703 7.03289 15.9443 7.81956 14.5932C9.48834 15.7872 9.64592 18.4264 13.8877 18.3008C17.2811 18.2002 19.8529 15.2835 20.5287 14.1105L19.8114 13.8059L20.5287 12.9055C18.7958 10.7395 16.6208 8.80656 13.5883 8.80656C11.1623 8.80656 8.83039 11.1911 7.81956 12.2019Z" fill="#FCB776" stroke="#AA5200"/>
<circle cx="17.6245" cy="12.4989" r="0.470434" fill="#AA5200"/>
<circle cx="16.4432" cy="6.96152" r="0.470434" fill="#AA5200"/>
</g>
<defs>
<clipPath id="clip0_435_2403">
<rect width="21" height="21" fill="white"/>
</clipPath>
</defs>
</svg>
