<svg width="21" height="21" viewBox="0 0 21 21" fill="none" xmlns="http://www.w3.org/2000/svg">
<path d="M5.31278 1.3887C4.18121 2.7369 4.22694 4.1403 5.30807 5.58312C5.49536 5.83308 5.86278 5.84383 6.0604 5.60196C7.20438 4.20183 7.18075 2.7281 6.03685 1.3858C5.84574 1.16154 5.5022 1.16301 5.31278 1.3887Z" fill="#98DB98" stroke="#1D771D" stroke-width="0.651852"/>
<path d="M17.3969 2.08099C15.7956 2.81162 15.2334 4.09832 15.5891 5.86582C15.6507 6.17202 15.9778 6.33972 16.2602 6.20633C17.8951 5.43415 18.5075 4.09345 18.0519 2.38972C17.9758 2.10507 17.665 1.95868 17.3969 2.08099Z" fill="#98DB98" stroke="#1D771D" stroke-width="0.651852"/>
<path d="M5.71159 16.1515C8.03392 16.1515 9.12903 14.0206 9.46253 12.6972C9.50106 12.5443 9.36089 12.4122 9.20728 12.4478C8.5178 12.6078 6.87857 12.9573 5.71159 12.9589C4.53399 12.9606 2.87925 12.6093 2.18317 12.4484C2.02875 12.4127 1.88835 12.5464 1.92852 12.6997C2.27531 14.0232 3.3907 16.1515 5.71159 16.1515Z" fill="#98DB98" stroke="#1D771D" stroke-width="0.651852"/>
<path d="M11.8712 15.8876C14.0158 16.7788 15.8448 15.2311 16.6606 14.1371C16.7548 14.0107 16.6761 13.8349 16.5206 13.8088C15.8225 13.692 14.1746 13.3857 13.0963 12.9394C12.0083 12.489 10.615 11.5297 10.034 11.1139C9.90507 11.0217 9.7241 11.0913 9.70237 11.2483C9.51474 12.6036 9.72802 14.997 11.8712 15.8876Z" fill="#98DB98" stroke="#1D771D" stroke-width="0.651852"/>
<path d="M5.71002 13.3634C7.82711 13.3634 8.8266 11.2368 9.13206 9.91321C9.16768 9.75885 9.02392 9.62844 8.87033 9.66726C8.22481 9.83039 6.75853 10.1692 5.71002 10.1708C4.65181 10.1724 3.1714 9.83186 2.51985 9.66776C2.36552 9.62889 2.22154 9.76076 2.25866 9.91552C2.57621 11.2393 3.59416 13.3634 5.71002 13.3634Z" fill="#98DB98" stroke="#1D771D" stroke-width="0.651852"/>
<path d="M12.7212 13.3156C14.6672 14.1495 16.4235 12.5885 17.2257 11.4922C17.3192 11.3644 17.2384 11.1879 17.082 11.1631C16.4244 11.0587 14.9432 10.7926 13.9788 10.3811C13.0055 9.96575 11.7789 9.06958 11.2447 8.66209C11.1182 8.56557 10.9339 8.63007 10.907 8.78695C10.6775 10.1288 10.7764 12.4822 12.7212 13.3156Z" fill="#98DB98" stroke="#1D771D" stroke-width="0.651852"/>
<path d="M5.70892 10.6745C7.68209 10.6745 8.61463 8.55198 8.90055 7.22809C8.93415 7.0725 8.78679 6.94345 8.6331 6.98486C8.01915 7.15032 6.67425 7.48034 5.70892 7.48192C4.73457 7.48352 3.37655 7.15178 2.75694 6.98536C2.60255 6.94389 2.45494 7.07432 2.48995 7.2303C2.78712 8.55435 3.73684 10.6745 5.70892 10.6745Z" fill="#98DB98" stroke="#1D771D" stroke-width="0.651852"/>
<path d="M13.7521 10.6413C15.5411 11.4737 17.282 9.94278 18.0998 8.86312C18.1959 8.73623 18.1168 8.55705 17.9599 8.52976C17.3335 8.42075 15.9749 8.15254 15.0991 7.7467C14.215 7.33707 13.1237 6.46335 12.6322 6.05105C12.5097 5.94832 12.3208 6.0043 12.2868 6.16049C11.9976 7.4863 11.9641 9.80924 13.7521 10.6413Z" fill="#98DB98" stroke="#1D771D" stroke-width="0.651852"/>
<path d="M5.70892 7.96318C7.52514 7.96318 8.45969 6.28552 8.81985 5.05546C8.91378 4.73465 8.6598 4.44036 8.32828 4.48321C7.60381 4.57683 6.453 4.85195 5.94518 5.66038C5.87918 5.76546 5.52606 5.76946 5.4586 5.66531C4.93457 4.85632 3.78818 4.57924 3.06439 4.48434C2.7311 4.44064 2.4768 4.73782 2.57406 5.05957C2.94574 6.28926 3.89472 7.96318 5.70892 7.96318Z" fill="#98DB98" stroke="#1D771D" stroke-width="0.651852"/>
<path d="M15.1508 8.10039C16.831 8.79002 18.3326 7.59286 19.1328 6.59168C19.3415 6.33056 19.2183 5.96187 18.8954 5.87563C18.1896 5.68716 17.0205 5.5047 16.2438 6.05976C16.1428 6.13191 15.8146 6.00154 15.7917 5.87957C15.6141 4.93219 14.6588 4.24057 14.0253 3.87795C13.7335 3.71098 13.3854 3.88933 13.3532 4.22392C13.2302 5.50264 13.4725 7.41153 15.1508 8.10039Z" fill="#98DB98" stroke="#1D771D" stroke-width="0.651852"/>
<path d="M5.70059 5.64786L5.70059 20" stroke="#1D771D" stroke-width="1.08642"/>
<path d="M16.003 5.94761C13.5314 10.6055 12.2027 13.8324 11.0562 19.4203" stroke="#1D771D" stroke-width="1.08642"/>
</svg>
