<svg width="21" height="21" viewBox="0 0 21 21" fill="none" xmlns="http://www.w3.org/2000/svg">
<path d="M13.5605 3.84961C13.8354 3.84961 14.0254 4.08265 14.0254 4.32715V6.38477H15.6982C15.9728 6.38494 16.1619 6.61708 16.1621 6.86133V8.91895H17.7539C18.0286 8.91918 18.2178 9.15211 18.2178 9.39648V9.89355H20.1748C20.3317 9.89355 20.4851 9.96975 20.5713 10.1045L20.6016 10.1562C20.6635 10.2787 20.6661 10.4233 20.6055 10.5508L18.7715 14.4629C18.9586 14.5027 19.151 14.5218 19.3447 14.5186H19.3467C19.6037 14.5186 19.8262 14.7179 19.8262 14.9805C19.826 15.2429 19.6035 15.4414 19.3467 15.4414C18.6911 15.4413 18.2666 15.3065 17.9277 15.1523L17.6123 14.9961C17.4281 14.9016 17.269 14.8206 17.0752 14.7607C16.8831 14.7014 16.6517 14.6621 16.3291 14.6621C16.0066 14.6621 15.7751 14.7005 15.583 14.7598C15.3893 14.8196 15.2299 14.9006 15.0459 14.9951L15.0469 14.9961C14.6515 15.2015 14.1849 15.4414 13.3105 15.4414C12.4364 15.4413 11.9725 15.2014 11.5752 14.9961C11.3913 14.9018 11.2325 14.8206 11.0391 14.7607C10.847 14.7014 10.6155 14.6621 10.293 14.6621C9.97048 14.6621 9.73893 14.7005 9.54688 14.7598C9.44992 14.7897 9.36144 14.8255 9.27441 14.8652L9.00977 14.9961C8.6144 15.2015 8.14851 15.4414 7.27441 15.4414C6.40018 15.4414 5.93635 15.2014 5.53906 14.9961C5.35519 14.9018 5.19639 14.8206 5.00293 14.7607C4.81088 14.7014 4.57934 14.6621 4.25684 14.6621C3.93441 14.6621 3.70277 14.7005 3.51074 14.7598C3.41382 14.7897 3.32528 14.8255 3.23828 14.8652L2.97363 14.9961C2.57825 15.2015 2.11245 15.4414 1.23828 15.4414C0.981456 15.4414 0.759945 15.2429 0.759766 14.9805C0.759766 14.7179 0.981353 14.5186 1.23828 14.5186H1.24219C1.44687 14.5235 1.65206 14.5002 1.85254 14.4531L0.37793 10.5166L0.376953 10.5156C0.323876 10.3714 0.350207 10.2131 0.438477 10.0908C0.529318 9.9652 0.675661 9.89657 0.825195 9.89355H1.38672V7.67969C1.38437 7.45249 1.54752 7.26863 1.75781 7.2168V6.57227C1.75781 6.30967 1.97936 6.11035 2.23633 6.11035H3.42969C3.68651 6.11053 3.9082 6.30978 3.9082 6.57227V7.20996C4.1369 7.24756 4.32069 7.43877 4.31836 7.67969V9.0791C4.40863 8.98435 4.5361 8.92482 4.67383 8.91992L4.67871 8.91895H6.48926V6.8584C6.49604 6.59184 6.71886 6.39413 6.97559 6.38477H8.70996V4.32324L8.72266 4.22656C8.77358 4.01011 8.97254 3.8576 9.19727 3.84961H13.5605Z" fill="#E1B7FB" stroke="#6E0BC6" stroke-width="0.3"/>
<path d="M20.175 10.0438H18.0681V9.39645C18.0681 9.22412 17.9352 9.06936 17.7535 9.06936H16.0125V6.86177C16.0125 6.68944 15.8797 6.53468 15.6979 6.53468H13.8753V4.32709C13.8753 4.15476 13.7425 4 13.5608 4H9.20247C9.016 4.00663 8.86448 4.14813 8.85993 4.32709V6.53468H6.98139C6.79492 6.54131 6.64341 6.68281 6.63885 6.86177V9.06936H4.67871C4.49224 9.07599 4.34072 9.21749 4.33617 9.39645V10.0438H4.16807V7.6793C4.17034 7.50466 4.02354 7.35884 3.83951 7.35222H3.7579V6.57209C3.7579 6.39976 3.6111 6.26057 3.42934 6.26057H2.23606C2.0543 6.26057 1.9075 6.39976 1.9075 6.57209V7.35222H1.86556C1.68136 7.35884 1.53456 7.50466 1.537 7.6793V10.0438H0.828199C0.721065 10.046 0.620756 10.0947 0.560118 10.1785C0.49948 10.2626 0.483219 10.3686 0.518175 10.4636L2.05173 14.556C1.78837 14.6355 1.51327 14.6753 1.23838 14.6686C1.05663 14.6686 0.909825 14.8078 0.909825 14.9801C0.909825 15.1525 1.05663 15.2917 1.23838 15.2917C2.07741 15.2917 2.51782 15.064 2.90474 14.863C3.27069 14.6751 3.58529 14.5117 4.25651 14.5117C4.92777 14.5117 5.24237 14.6753 5.60828 14.863C5.99748 15.0642 6.43561 15.2917 7.27464 15.2917C8.11367 15.2917 8.55407 15.064 8.941 14.863C9.30695 14.6751 9.62154 14.5117 10.2928 14.5117C10.964 14.5117 11.2786 14.6753 11.6445 14.863C12.0337 15.0642 12.4719 15.2917 13.3109 15.2917C14.1499 15.2917 14.5903 15.064 14.9773 14.863C15.3432 14.6751 15.6578 14.5117 16.329 14.5117C17.0003 14.5117 17.3149 14.6753 17.6808 14.863C18.07 15.0642 18.5081 15.2917 19.3472 15.2917C19.5289 15.2917 19.6757 15.1525 19.6757 14.9801C19.6757 14.8078 19.5289 14.6686 19.3472 14.6686C19.0791 14.6731 18.8134 14.6376 18.5593 14.5647L20.4705 10.4877C20.5172 10.3905 20.5077 10.2778 20.4473 10.1895C20.3915 10.099 20.2866 10.0438 20.1748 10.0438L20.175 10.0438ZM17.4108 10.0438H16.4646C16.3738 10.0438 16.2851 10.0791 16.2222 10.1432L14.7983 11.6017H13.7076V9.69025H17.4087L17.4085 10.0438L17.4108 10.0438ZM13.05 9.69239V11.6039H9.34904V9.69239H13.05ZM15.3527 9.06935H11.6517V7.15787H15.3528L15.3527 9.06935ZM9.51443 4.62339H13.2156V6.53488L9.51443 6.53472V4.62339ZM7.29321 7.15791H10.9943V9.06939H7.29321V7.15791ZM4.99071 9.69243H8.69184V11.6039H7.48686L6.18645 10.1544C6.12354 10.0836 6.03266 10.0439 5.93479 10.0439H4.98864L4.98831 9.69243H4.99071ZM2.56448 6.88615H3.0982V7.35458H2.56448V6.88615ZM2.19382 7.97777H3.51067V10.0439H2.19382V7.97777ZM17.9676 14.2977C17.5877 14.101 17.1473 13.8868 16.3338 13.8868C15.4947 13.8868 15.0543 14.1144 14.6674 14.3154C14.3015 14.5033 13.9869 14.6667 13.3156 14.6667C12.6444 14.6667 12.3298 14.5031 11.9639 14.3154C11.5747 14.1143 11.1365 13.8868 10.2975 13.8868C9.45849 13.8868 9.01808 14.1144 8.63115 14.3154C8.2652 14.5033 7.95061 14.6667 7.27939 14.6667C6.60817 14.6667 6.29353 14.5031 5.92762 14.3154C5.53842 14.1143 5.10029 13.8868 4.26126 13.8868C3.46418 13.8868 3.02831 14.0901 2.65308 14.2823L1.29445 10.6671H5.78549L7.0859 12.1166C7.14882 12.1873 7.2397 12.2271 7.33757 12.2271H14.945C15.0359 12.2271 15.1245 12.1918 15.1874 12.1277L16.6114 10.6692H19.6714L17.9676 14.2977Z" fill="#6E0BC6"/>
<path d="M16.3469 15.4203C17.2095 15.4203 17.6652 15.6558 18.0598 15.8597C18.2434 15.954 18.4062 16.0377 18.6047 16.099C18.8022 16.16 19.0386 16.1996 19.3655 16.1996C19.5973 16.1997 19.7942 16.3792 19.7942 16.6117C19.794 16.844 19.5972 17.0227 19.3655 17.0228C18.5029 17.0228 18.0472 16.7873 17.6526 16.5834C17.4689 16.4891 17.3062 16.4055 17.1077 16.3441C16.9102 16.2831 16.6738 16.2426 16.3469 16.2426C16.0201 16.2426 15.7836 16.2831 15.5862 16.3441C15.4869 16.3748 15.3963 16.4102 15.3078 16.4506L15.0412 16.5834C14.6488 16.7872 14.1914 17.0228 13.3293 17.0228C12.4667 17.0228 12.0111 16.7873 11.6164 16.5834C11.4327 16.4891 11.2701 16.4055 11.0715 16.3441C10.874 16.2831 10.6377 16.2426 10.3108 16.2426C9.98386 16.2426 9.74752 16.2831 9.55003 16.3441C9.45076 16.3748 9.36015 16.4102 9.27171 16.4506L9.00511 16.5834C8.61264 16.7872 8.15528 17.0228 7.2932 17.0228C6.4306 17.0228 5.97492 16.7873 5.58031 16.5834C5.39656 16.4891 5.23398 16.4055 5.03539 16.3441C4.83788 16.2831 4.60163 16.2426 4.27464 16.2426C3.94767 16.2426 3.71141 16.2831 3.5139 16.3441C3.31532 16.4055 3.15272 16.489 2.96898 16.5834C2.57642 16.7873 2.11851 17.0228 1.25609 17.0228C1.02442 17.0226 0.82838 16.844 0.828354 16.6117C0.828354 16.3793 1.02438 16.1998 1.25609 16.1996C1.58307 16.1996 1.8203 16.16 2.01781 16.099C2.21604 16.0377 2.37833 15.9539 2.56175 15.8597C2.95434 15.6558 3.4121 15.4203 4.27464 15.4203C5.13704 15.4203 5.59201 15.6558 5.98656 15.8597C6.17029 15.954 6.33296 16.0376 6.53148 16.099C6.729 16.16 6.96623 16.1996 7.2932 16.1996C7.61996 16.1996 7.85652 16.16 8.05394 16.099C8.25246 16.0376 8.41513 15.9541 8.59886 15.8597L8.91039 15.7054C9.24506 15.553 9.66386 15.4203 10.3108 15.4203C11.1734 15.4203 11.6291 15.6558 12.0237 15.8597C12.2073 15.9539 12.3701 16.0377 12.5686 16.099C12.766 16.16 13.0025 16.1996 13.3293 16.1996C13.6562 16.1996 13.8926 16.16 14.0901 16.099C14.2886 16.0377 14.4513 15.9541 14.635 15.8597L14.9465 15.7054C15.2812 15.553 15.7 15.4203 16.3469 15.4203Z" fill="#6E0BC6" stroke="#6E0BC6" stroke-width="0.2"/>
</svg>
