<svg width="21" height="21" viewBox="0 0 21 21" fill="none" xmlns="http://www.w3.org/2000/svg">
<path d="M20.4062 8.9111H20.0332C19.7341 8.9111 19.6905 9.12922 19.7061 9.23825L17.7129 15.8095C17.2686 15.5494 16.7532 15.3975 16.2012 15.3974C14.671 15.3974 13.4097 16.543 13.2256 18.0234H8.14844C7.96437 16.543 6.70306 15.3974 5.17285 15.3974C4.45207 15.3974 3.79073 15.6515 3.27344 16.0752L1.20117 9.23825C1.21671 9.12921 1.17283 8.9112 0.874023 8.9111H0.5V7.69626H20.4062V8.9111Z" fill="#2F2225"/>
<circle cx="5.1729" cy="18.3972" r="2.1028" fill="#2F2225"/>
<circle cx="16.2009" cy="18.3972" r="2.1028" fill="#2F2225"/>
<path d="M2.46264 5.07944L1.66824 7.74299H18.9112L19.1449 6.29439L16.4813 3.30374L14.986 3.86449L11.9953 0.5L8.30376 3.02336L5.82712 2.64953L2.46264 5.07944Z" fill="#2F2225"/>
<path d="M8.25282 6.791V6.024H12.6598V6.791L11.7498 6.882C11.7412 7.402 11.7368 7.92633 11.7368 8.455C11.7368 8.98367 11.7368 9.51667 11.7368 10.054V10.457C11.7368 10.9857 11.7368 11.5187 11.7368 12.056C11.7368 12.5847 11.7412 13.1133 11.7498 13.642L12.6598 13.733V14.5H8.25282V13.733L9.14982 13.642C9.15849 13.122 9.16282 12.5977 9.16282 12.069C9.16282 11.5317 9.16282 10.9987 9.16282 10.47V10.054C9.16282 9.52533 9.16282 8.99667 9.16282 8.468C9.16282 7.93933 9.15849 7.41067 9.14982 6.882L8.25282 6.791Z" fill="#EDEBEB"/>
</svg>
