<svg width="21" height="21" viewBox="0 0 21 21" fill="none" xmlns="http://www.w3.org/2000/svg">
<rect x="1.85" y="1.85" width="17.3" height="17.3" rx="8.65" fill="#CED8F2" stroke="#0E52FF" stroke-width="1.7"/>
<path d="M7.13158 7.291V6.524H11.6686V7.291L10.6286 7.395C10.6199 7.915 10.6156 8.43933 10.6156 8.968C10.6156 9.488 10.6156 10.0167 10.6156 10.554V11.152C10.6156 11.62 10.6156 12.114 10.6156 12.634C10.6242 13.154 10.6329 13.6827 10.6416 14.22H12.6046L12.9556 12.413H14.0996L13.9696 15H7.13158V14.233L8.02858 14.142C8.03724 13.6307 8.04158 13.1367 8.04158 12.66C8.04158 12.1747 8.04158 11.737 8.04158 11.347V10.554C8.04158 10.0253 8.04158 9.49667 8.04158 8.968C8.04158 8.43933 8.03724 7.91067 8.02858 7.382L7.13158 7.291Z" fill="#0E52FF"/>
</svg>
