<svg width="21" height="21" viewBox="0 0 21 21" fill="none" xmlns="http://www.w3.org/2000/svg">
<path d="M10.4814 5.77832C8.98883 5.77832 7.8355 6.36367 7.0625 7.26367C6.29847 8.15331 5.92871 9.32299 5.92871 10.4736C5.92879 11.6242 6.29856 12.7931 7.0625 13.6826C7.8355 14.5827 8.98876 15.168 10.4814 15.168C12.0098 15.1679 13.1806 14.5864 13.959 13.6836C14.7284 12.7912 15.0867 11.6185 15.0713 10.4668C15.0558 9.31504 14.6661 8.14743 13.8936 7.26074C13.1126 6.36453 11.9595 5.77843 10.4814 5.77832ZM8.96484 17.2773L8.60059 17.1748C8.0865 17.0289 7.59141 16.8232 7.125 16.5625L6.79492 16.3779L6.52734 16.6445L5.82812 17.3428V17.3438C5.49359 17.6783 4.95026 17.6784 4.61523 17.3438L3.65625 16.3838C3.32962 16.046 3.32977 15.5098 3.65625 15.1719L4.61426 14.2139L4.42773 13.8828C4.16308 13.4139 3.95384 12.9158 3.80566 12.3984L3.70215 12.0361H2.35742C1.88404 12.0361 1.50008 11.6521 1.5 11.1787V9.82129C1.50007 9.34792 1.88404 8.96387 2.35742 8.96387H3.69043L3.79297 8.59863C3.93916 8.07553 4.14636 7.57108 4.41113 7.09668L4.5957 6.7666L4.32812 6.5L3.65625 5.82812C3.33003 5.49045 3.32992 4.95416 3.65625 4.61621L4.61621 3.65625C4.95075 3.32168 5.49328 3.32183 5.82812 3.65625L6.76074 4.58887L7.09082 4.40137C7.56697 4.13222 8.0742 3.92152 8.60059 3.77246L8.96387 3.66895V2.35742C8.96387 1.88403 9.34791 1.50006 9.82129 1.5H11.1787C11.6521 1.50009 12.0361 1.88405 12.0361 2.35742V3.66895L12.3994 3.77246C12.926 3.92147 13.4328 4.13225 13.9092 4.40137L14.2402 4.58789L14.5088 4.32031L15.1729 3.65723C15.5167 3.33688 16.0517 3.33877 16.3926 3.66406L17.3398 4.61133V4.6123C17.6706 4.95011 17.6722 5.48989 17.3438 5.8291L16.6729 6.50098L16.4062 6.76758L16.5898 7.09766C16.854 7.57169 17.0611 8.07564 17.207 8.59863L17.3096 8.96387H18.6426C19.1161 8.96387 19.5 9.34807 19.5 9.82129V11.1787C19.4999 11.652 19.1159 12.0352 18.6426 12.0352H17.2979L17.1934 12.3984C17.0452 12.9159 16.8369 13.4141 16.5723 13.8828L16.3857 14.2139L17.3398 15.168V15.1689C17.6702 15.5065 17.6719 16.0455 17.3438 16.3848L16.3926 17.3359C16.0703 17.644 15.5744 17.6632 15.2305 17.3936L15.1641 17.3359L14.4736 16.6465L14.2061 16.3799L13.877 16.5635C13.4101 16.8238 12.9138 17.0291 12.3994 17.1748L12.0361 17.2773V18.6426C12.0361 19.116 11.6521 19.5 11.1787 19.5H9.82129C9.34799 19.4999 8.96484 19.1159 8.96484 18.6426V17.2773Z" fill="#E1B7FB" stroke="#6E0BC6"/>
</svg>
