<svg width="21" height="21" viewBox="0 0 21 21" fill="none" xmlns="http://www.w3.org/2000/svg">
<path d="M15.9062 6.63914C18.948 9.6809 19.3545 14.2566 15.9062 17.109C14.1016 18.6019 12.3761 19.0152 10.5677 19.0294C8.74798 19.0437 6.84492 18.6495 4.89104 17.109C1.51294 14.4457 2.1463 9.48949 5.31071 6.32507C8.79688 2.8389 12.3359 3.06876 15.9062 6.63914Z" fill="#FCB776" stroke="#AA5200" stroke-width="1.2"/>
<path d="M0.599682 2.24217C-0.180048 7.50387 3.87128 7.95402 3.87128 7.95402L6.62982 5.19442C6.62982 5.19442 4.80821 0.86027 0.599682 2.24217Z" fill="#FCB776" stroke="#AA5200" stroke-width="0.91121"/>
<path d="M20.4003 2.24217C21.18 7.50387 17.1287 7.95402 17.1287 7.95402L14.3702 5.19442C14.3702 5.19442 16.1918 0.86027 20.4003 2.24217Z" fill="#FCB776" stroke="#AA5200" stroke-width="0.91121"/>
<path d="M10.4254 10.9839C11.3844 10.984 12.2348 11.2578 12.8345 11.6783C13.4354 12.0997 13.7545 12.6421 13.7545 13.1949C13.7544 13.7477 13.4355 14.2901 12.8345 14.7115C12.2348 15.132 11.3844 15.4058 10.4254 15.4058C9.46625 15.4058 8.61499 15.132 8.01521 14.7115C7.41442 14.2901 7.09534 13.7476 7.09529 13.1949C7.09529 12.6421 7.41445 12.0996 8.01521 11.6783C8.61499 11.2578 9.46625 10.9839 10.4254 10.9839Z" stroke="#AA5200" stroke-width="0.828373"/>
<circle cx="13.5362" cy="8.87255" r="0.752862" fill="#AA5200"/>
<circle cx="7.38267" cy="8.87255" r="0.752862" fill="#AA5200"/>
<rect x="9.1622" y="12.2194" width="0.930359" height="1.95078" rx="0.465179" fill="#AA5200"/>
<rect x="10.7575" y="12.2194" width="0.930359" height="1.95078" rx="0.465179" fill="#AA5200"/>
</svg>
