<svg width="21" height="21" viewBox="0 0 21 21" fill="none" xmlns="http://www.w3.org/2000/svg">
<g clip-path="url(#clip0_435_2430)">
<path d="M17.6002 10.5155C16.6368 10.304 13.9635 10.0332 12.1803 9.8745C11.8358 9.84383 11.5386 10.1116 11.5309 10.4575L11.516 11.1252C11.5096 11.4112 11.7059 11.6588 11.9896 11.6946C13.1789 11.8448 15.6623 11.9822 17.2783 12.0552C17.6107 12.0702 17.8898 11.8105 17.9014 11.4779L17.9192 10.9668C17.9267 10.7512 17.8109 10.5618 17.6002 10.5155Z" fill="#98DB98" stroke="#1D771D" stroke-width="0.7"/>
<path d="M13.2517 10.8359C12.2655 10.822 9.59221 11.0935 7.81352 11.2959C7.46983 11.3351 7.23244 11.6571 7.29431 11.9974L7.41378 12.6546C7.46494 12.936 7.70694 13.1392 7.99212 13.1173C9.18733 13.0257 11.6477 12.6617 13.2455 12.4088C13.5742 12.3568 13.7955 12.0463 13.74 11.7182L13.6548 11.2139C13.6189 11.0012 13.4674 10.8389 13.2517 10.8359Z" fill="#98DB98" stroke="#1D771D" stroke-width="0.7"/>
<path d="M4.3208 7.93805C3.57446 8.58284 1.75674 10.5618 0.561808 11.8947C0.330915 12.1523 0.367407 12.5507 0.63975 12.764L1.16565 13.1758C1.39083 13.3521 1.7067 13.3432 1.90532 13.1374C2.73777 12.2749 4.33488 10.3683 5.36112 9.11783C5.57224 8.86059 5.53136 8.48151 5.27192 8.27309L4.87323 7.9528C4.70504 7.81768 4.48405 7.797 4.3208 7.93805Z" fill="#98DB98" stroke="#1D771D" stroke-width="0.7"/>
<path d="M11.0764 8.39714C10.1051 8.226 7.42274 8.06728 5.63454 7.98322C5.28901 7.96698 5.00326 8.24697 5.01001 8.59281L5.02305 9.26064C5.02864 9.5466 5.2351 9.78581 5.52011 9.80975C6.71463 9.91006 9.20154 9.94347 10.8192 9.94891C11.152 9.95003 11.42 9.67885 11.4176 9.34607L11.414 8.83467C11.4125 8.61893 11.2889 8.43457 11.0764 8.39714Z" fill="#98DB98" stroke="#1D771D" stroke-width="0.7"/>
<path d="M11.4708 5.73497C10.4995 5.56383 7.81715 5.40511 6.02895 5.32105C5.68342 5.30481 5.39767 5.5848 5.40442 5.93064L5.41746 6.59847C5.42304 6.88443 5.62951 7.12364 5.91452 7.14758C7.10904 7.24789 9.59595 7.2813 11.2136 7.28674C11.5464 7.28786 11.8144 7.01667 11.812 6.6839L11.8084 6.1725C11.8069 5.95676 11.6833 5.7724 11.4708 5.73497Z" fill="#98DB98" stroke="#1D771D" stroke-width="0.7"/>
<path d="M12.919 5.23815C11.9477 5.40928 9.26536 5.568 7.47716 5.65206C7.13163 5.6683 6.84588 5.38832 6.85263 5.04247L6.86567 4.37464C6.87126 4.08869 7.07772 3.84947 7.36273 3.82554C8.55725 3.72522 11.0442 3.69181 12.6618 3.68637C12.9946 3.68525 13.2626 3.95644 13.2603 4.28921L13.2566 4.80062C13.2551 5.01636 13.1315 5.20071 12.919 5.23815Z" fill="#98DB98" stroke="#1D771D" stroke-width="0.7"/>
<path d="M11.7117 7.34334C10.7404 7.1722 8.05806 7.01348 6.26986 6.92942C5.92433 6.91318 5.63858 7.19317 5.64533 7.53901L5.65837 8.20684C5.66395 8.49279 5.87042 8.73201 6.15542 8.75595C7.34994 8.85626 9.83686 8.88967 11.4545 8.89511C11.7873 8.89623 12.0553 8.62504 12.053 8.29227L12.0493 7.78087C12.0478 7.56513 11.9242 7.38077 11.7117 7.34334Z" fill="#98DB98" stroke="#1D771D" stroke-width="0.7"/>
<path d="M16.2561 7.00896C15.3469 6.62669 12.7665 5.87708 11.0415 5.39857C10.7082 5.30611 10.3674 5.51575 10.2973 5.85449L10.1619 6.50858C10.104 6.78865 10.2522 7.0677 10.5248 7.15424C11.6674 7.51695 14.085 8.10102 15.6611 8.46506C15.9854 8.53994 16.3069 8.33494 16.3784 8.00993L16.4882 7.51046C16.5346 7.29975 16.455 7.09258 16.2561 7.00896Z" fill="#98DB98" stroke="#1D771D" stroke-width="0.7"/>
<path d="M14.4924 8.64628C13.521 8.47515 10.8387 8.31643 9.05047 8.23237C8.70494 8.21613 8.41918 8.49611 8.42594 8.84196L8.43898 9.50979C8.44456 9.79574 8.65103 10.035 8.93603 10.0589C10.1306 10.1592 12.6175 10.1926 14.2351 10.1981C14.5679 10.1992 14.8359 9.92799 14.8336 9.59522L14.8299 9.08381C14.8284 8.86807 14.7048 8.68372 14.4924 8.64628Z" fill="#98DB98" stroke="#1D771D" stroke-width="0.7"/>
<path d="M9.88267 10.2839C8.91134 10.1128 6.22899 9.95406 4.44079 9.87C4.09526 9.85376 3.8095 10.1337 3.81626 10.4796L3.8293 11.1474C3.83488 11.4334 4.04135 11.6726 4.32635 11.6965C5.52087 11.7968 8.00779 11.8303 9.62544 11.8357C9.95823 11.8368 10.2262 11.5656 10.2239 11.2328L10.2203 10.7214C10.2187 10.5057 10.0951 10.3214 9.88267 10.2839Z" fill="#98DB98" stroke="#1D771D" stroke-width="0.7"/>
<path d="M7.3134 12.8461C6.34206 12.6749 3.65971 12.5162 1.87151 12.4322C1.52598 12.4159 1.24023 12.6959 1.24698 13.0418L1.26002 13.7096C1.2656 13.9955 1.47207 14.2348 1.75708 14.2587C2.9516 14.359 5.43851 14.3924 7.05617 14.3979C7.38895 14.399 7.65696 14.1278 7.65461 13.795L7.65099 13.2836C7.64946 13.0679 7.52587 12.8835 7.3134 12.8461Z" fill="#98DB98" stroke="#1D771D" stroke-width="0.7"/>
<path d="M14.1255 11.1251C13.1505 11.2738 10.5585 11.9819 8.83742 12.4746C8.50487 12.5698 8.32376 12.9266 8.44085 13.2521L8.66695 13.8806C8.76376 14.1497 9.03593 14.3103 9.3136 14.2417C10.4774 13.9544 12.8442 13.1901 14.3785 12.6775C14.6941 12.5721 14.8612 12.2294 14.7525 11.9149L14.5854 11.4315C14.5149 11.2276 14.3388 11.0925 14.1255 11.1251Z" fill="#98DB98" stroke="#1D771D" stroke-width="0.7"/>
<path d="M17.2412 7.24523C16.2604 7.14103 13.5735 7.16639 11.7837 7.20501C11.4379 7.21247 11.172 7.51137 11.2024 7.85594L11.2611 8.52131C11.2863 8.80621 11.5087 9.03072 11.7946 9.03508C12.9932 9.05335 15.4766 8.91635 17.0908 8.81098C17.4229 8.78931 17.6717 8.5004 17.6466 8.16857L17.6079 7.65861C17.5916 7.44349 17.4557 7.26803 17.2412 7.24523Z" fill="#98DB98" stroke="#1D771D" stroke-width="0.7"/>
<path d="M18.122 11.8282C17.1098 11.7269 14.4268 11.7535 12.6552 11.7924C12.3247 11.7996 12.0637 12.0742 12.0714 12.4048L12.0927 13.3141C12.0997 13.6147 12.3273 13.8596 12.628 13.8634C13.8496 13.8788 16.3364 13.7405 17.9348 13.6356C18.2493 13.6149 18.4927 13.3534 18.4927 13.0383L18.4927 12.2767C18.4927 12.0446 18.353 11.8512 18.122 11.8282Z" fill="#98DB98" stroke="#1D771D" stroke-width="0.7"/>
<path d="M12.1045 17.2054C13.0185 16.7428 15.5295 15.7974 17.1913 15.1944C17.4985 15.083 17.8374 15.2396 17.9535 15.545L18.3543 16.5999C18.4624 16.8845 18.3396 17.2006 18.057 17.3141C16.9184 17.7715 14.5508 18.5416 13.0266 19.0206C12.7296 19.1139 12.4113 18.9632 12.2939 18.6748L11.9234 17.765C11.8345 17.5467 11.8942 17.3118 12.1045 17.2054Z" fill="#98DB98" stroke="#1D771D" stroke-width="0.7"/>
<path d="M11.8552 13.3274C10.8746 13.1564 8.19264 12.9981 6.40961 12.9144C6.0687 12.8984 5.78479 13.171 5.78479 13.5123L5.78479 14.3797C5.78479 14.6701 5.99242 14.9155 6.28184 14.9395C7.48326 15.0395 9.97133 15.0726 11.5843 15.0779C11.912 15.079 12.178 14.8158 12.1828 14.4882L12.1935 13.7752C12.1967 13.5548 12.0724 13.3653 11.8552 13.3274Z" fill="#98DB98" stroke="#1D771D" stroke-width="0.7"/>
<path d="M19.8818 10.8879C18.8084 10.4274 15.114 9.31129 13.1386 8.6994C12.7972 8.59365 12.439 8.80633 12.3692 9.15683L12.156 10.2279C12.1022 10.4978 12.2389 10.7645 12.4993 10.8536C13.8461 11.3146 17.3481 12.2441 19.1762 12.732C19.5113 12.8214 19.8512 12.6092 19.9193 12.2691L20.1018 11.3579C20.1417 11.1588 20.0684 10.968 19.8818 10.8879Z" fill="#98DB98" stroke="#1D771D" stroke-width="0.7"/>
<path d="M1.8698 7.99026C2.78247 7.61633 5.36959 6.89039 7.09894 6.4277C7.4331 6.3383 7.77189 6.55106 7.83889 6.89042L7.96828 7.54572C8.02368 7.82632 7.87285 8.10399 7.59947 8.18803C6.45366 8.54026 4.03082 9.10216 2.45138 9.45174C2.12646 9.52366 1.80688 9.31572 1.73836 8.99006L1.63306 8.48961C1.58864 8.27849 1.67017 8.07205 1.8698 7.99026Z" fill="#98DB98" stroke="#1D771D" stroke-width="0.7"/>
<path d="M17.9035 6.2882C17.0044 5.88271 14.4441 5.0671 12.7319 4.54445C12.4011 4.44346 12.0551 4.64429 11.9763 4.98111L11.8242 5.63151C11.759 5.91001 11.9001 6.19277 12.1704 6.28628C13.3032 6.67821 15.705 7.32416 17.2713 7.72854C17.5935 7.81173 17.9202 7.61505 18 7.29199L18.1227 6.7955C18.1744 6.58605 18.1001 6.3769 17.9035 6.2882Z" fill="#98DB98" stroke="#1D771D" stroke-width="0.7"/>
<path d="M7.72171 7.94511C6.73445 8.3016 4.23747 9.48817 2.58597 10.2946C2.27015 10.4488 2.15606 10.8405 2.33779 11.1414L2.88505 12.0472C3.03241 12.2912 3.33027 12.3957 3.59043 12.2794C4.72147 11.7738 7.00477 10.5734 8.4701 9.78599C8.76301 9.62859 8.8699 9.26291 8.70993 8.97139L8.27456 8.17801C8.16175 7.97242 7.94228 7.86546 7.72171 7.94511Z" fill="#98DB98" stroke="#1D771D" stroke-width="0.7"/>
<path d="M6.87128 9.79779C7.81783 9.52064 10.4663 9.06723 12.2344 8.78659C12.576 8.73236 12.8909 8.97915 12.9223 9.32363L12.9829 9.98883C13.0089 10.2737 12.8301 10.5342 12.5494 10.5894C11.3733 10.8207 8.90517 11.1281 7.29797 11.3118C6.96734 11.3495 6.67108 11.1096 6.63674 10.7785L6.58397 10.2699C6.5617 10.0553 6.66422 9.85841 6.87128 9.79779Z" fill="#98DB98" stroke="#1D771D" stroke-width="0.7"/>
<path d="M13.2264 8.13902C14.2118 8.09771 16.8916 8.29477 18.6753 8.44769C19.0199 8.47724 19.2662 8.79253 19.2138 9.13445L19.1126 9.7947C19.0693 10.0774 18.8331 10.2873 18.5474 10.2733C17.3501 10.2149 14.8806 9.9195 13.2764 9.71117C12.9463 9.66832 12.7165 9.3641 12.7628 9.03455L12.834 8.52811C12.864 8.31446 13.0108 8.14805 13.2264 8.13902Z" fill="#98DB98" stroke="#1D771D" stroke-width="0.7"/>
<path d="M10.1831 10.0502C9.07466 10.2437 5.85493 11.1802 3.99366 11.7098C3.66463 11.8034 3.47883 12.1521 3.58587 12.477L3.82296 13.1966C3.91359 13.4717 4.187 13.6377 4.46767 13.5661C5.78138 13.2311 8.76468 12.2371 10.438 11.6848C10.7498 11.5819 10.9212 11.2481 10.8232 10.9347L10.6432 10.359C10.5776 10.1492 10.3997 10.0124 10.1831 10.0502Z" fill="#98DB98" stroke="#1D771D" stroke-width="0.7"/>
</g>
<defs>
<clipPath id="clip0_435_2430">
<rect width="21" height="21" rx="0.6" fill="white"/>
</clipPath>
</defs>
</svg>
