<svg width="88" height="75" viewBox="0 0 88 75" fill="none" xmlns="http://www.w3.org/2000/svg">
<path d="M73.9189 51.4888L75.5518 58.6753L67.7441 59.4429L66.9238 66.7505L59.2441 65.2222L56.0518 71.935L49.2529 68.2612L44 73.7212L38.7471 68.2612L31.9482 71.935L28.7559 65.2222L21.0762 66.7505L20.2559 59.4429L12.4482 58.6753L14.0811 51.4888L12.2393 50.7212H14.8389L15.2422 50.8891L13.6748 57.7905L21.1592 58.5268L21.9482 65.5571L29.3242 64.0893L32.3984 70.5542L38.9404 67.02L44 72.2778L49.0596 67.02L55.6006 70.5542L58.6758 64.0893L66.0508 65.5571L66.8408 58.5268L74.3242 57.7905L72.7578 50.8891L73.1611 50.7212H75.7607L73.9189 51.4888ZM49.2529 6.18114L56.0518 2.50731L59.2441 9.2202L66.9238 7.69188L67.7441 14.9995L75.5518 15.7671L73.9189 22.9536L78.1611 24.7212H75.5615L72.7578 23.5532L74.3242 16.6509L66.8408 15.9155L66.0508 8.88426L58.6758 10.353L55.6006 3.88719L49.0596 7.42332L44 2.16356L38.9404 7.42332L32.3984 3.88719L29.3242 10.353L21.9482 8.88426L21.1592 15.9155L13.6748 16.6509L15.2422 23.5532L12.4375 24.7212H9.83887L14.0811 22.9536L12.4482 15.7671L20.2559 14.9995L21.0762 7.69188L28.7559 9.2202L31.9482 2.50731L38.7471 6.18114L44 0.721176L49.2529 6.18114Z" fill="#FF6060"/>
<path d="M73.9189 51.4888L73.7266 51.0272L73.3381 51.1891L73.4314 51.5995L73.9189 51.4888ZM75.5518 58.6753L75.6007 59.1729L76.165 59.1174L76.0393 58.5645L75.5518 58.6753ZM67.7441 59.4429L67.6952 58.9453L67.2924 58.9849L67.2473 59.3871L67.7441 59.4429ZM66.9238 66.7505L66.8262 67.2409L67.36 67.3471L67.4207 66.8063L66.9238 66.7505ZM59.2441 65.2222L59.3417 64.7318L58.9598 64.6558L58.7926 65.0074L59.2441 65.2222ZM56.0518 71.935L55.8141 72.3749L56.2772 72.6252L56.5033 72.1498L56.0518 71.935ZM49.2529 68.2612L49.4906 67.8213L49.1562 67.6406L48.8926 67.9146L49.2529 68.2612ZM44 73.7212L43.6397 74.0678L44 74.4424L44.3603 74.0678L44 73.7212ZM38.7471 68.2612L39.1074 67.9146L38.8438 67.6406L38.5094 67.8213L38.7471 68.2612ZM31.9482 71.935L31.4967 72.1498L31.7228 72.6252L32.1859 72.3749L31.9482 71.935ZM28.7559 65.2222L29.2074 65.0074L29.0402 64.6558L28.6583 64.7318L28.7559 65.2222ZM21.0762 66.7505L20.5793 66.8063L20.64 67.3471L21.1738 67.2409L21.0762 66.7505ZM20.2559 59.4429L20.7527 59.3871L20.7076 58.9849L20.3048 58.9453L20.2559 59.4429ZM12.4482 58.6753L11.9607 58.5645L11.835 59.1174L12.3993 59.1729L12.4482 58.6753ZM14.0811 51.4888L14.5686 51.5995L14.6619 51.1891L14.2734 51.0272L14.0811 51.4888ZM12.2393 50.7212V50.2212L12.0469 51.1827L12.2393 50.7212ZM14.8389 50.7212L15.0311 50.2596L14.9388 50.2212H14.8389V50.7212ZM15.2422 50.8891L15.7298 50.9999L15.823 50.5894L15.4344 50.4276L15.2422 50.8891ZM13.6748 57.7905L13.1872 57.6798L13.0617 58.2326L13.6258 58.2881L13.6748 57.7905ZM21.1592 58.5268L21.6561 58.4711L21.6109 58.0689L21.2081 58.0292L21.1592 58.5268ZM21.9482 65.5571L21.4514 65.6129L21.5121 66.1537L22.0458 66.0475L21.9482 65.5571ZM29.3242 64.0893L29.7758 63.8746L29.6085 63.523L29.2266 63.599L29.3242 64.0893ZM32.3984 70.5542L31.9469 70.7689L32.173 71.2443L32.6361 70.9941L32.3984 70.5542ZM38.9404 67.02L39.3007 66.6733L39.0372 66.3994L38.7028 66.5801L38.9404 67.02ZM44 72.2778L43.6397 72.6245L44 72.9989L44.3603 72.6245L44 72.2778ZM49.0596 67.02L49.2972 66.5801L48.9628 66.3994L48.6993 66.6733L49.0596 67.02ZM55.6006 70.5542L55.3629 70.9941L55.826 71.2443L56.0521 70.769L55.6006 70.5542ZM58.6758 64.0893L58.7734 63.599L58.3915 63.523L58.2243 63.8746L58.6758 64.0893ZM66.0508 65.5571L65.9532 66.0475L66.4869 66.1537L66.5477 65.613L66.0508 65.5571ZM66.8408 58.5268L66.7919 58.0292L66.3891 58.0689L66.3439 58.471L66.8408 58.5268ZM74.3242 57.7905L74.3732 58.2881L74.9373 58.2326L74.8118 57.6798L74.3242 57.7905ZM72.7578 50.8891L72.5656 50.4276L72.1771 50.5894L72.2702 50.9998L72.7578 50.8891ZM73.1611 50.7212V50.2212H73.0612L72.9689 50.2596L73.1611 50.7212ZM75.7607 50.7212L75.9531 51.1827L75.7607 50.2212V50.7212ZM49.2529 6.18114L48.8926 6.52779L49.1562 6.80175L49.4906 6.62102L49.2529 6.18114ZM56.0518 2.50731L56.5033 2.29257L56.2772 1.81716L55.8141 2.06742L56.0518 2.50731ZM59.2441 9.2202L58.7926 9.43493L58.9598 9.78658L59.3417 9.71058L59.2441 9.2202ZM66.9238 7.69188L67.4207 7.6361L67.36 7.09527L66.8262 7.2015L66.9238 7.69188ZM67.7441 14.9995L67.2473 15.0553L67.2924 15.4575L67.6952 15.4971L67.7441 14.9995ZM75.5518 15.7671L76.0393 15.8779L76.165 15.3249L75.6007 15.2695L75.5518 15.7671ZM73.9189 22.9536L73.4314 22.8428L73.3381 23.2533L73.7266 23.4151L73.9189 22.9536ZM78.1611 24.7212V25.2212L78.3534 24.2596L78.1611 24.7212ZM75.5615 24.7212L75.3692 25.1827L75.4615 25.2212H75.5615V24.7212ZM72.7578 23.5532L72.2702 23.4426L72.1771 23.8529L72.5655 24.0148L72.7578 23.5532ZM74.3242 16.6509L74.8118 16.7615L74.9373 16.2087L74.3731 16.1533L74.3242 16.6509ZM66.8408 15.9155L66.3439 15.9713L66.3891 16.3735L66.7919 16.4131L66.8408 15.9155ZM66.0508 8.88426L66.5477 8.82843L66.4869 8.28759L65.9531 8.39389L66.0508 8.88426ZM58.6758 10.353L58.2243 10.5678L58.3915 10.9194L58.7734 10.8434L58.6758 10.353ZM55.6006 3.88719L56.0521 3.67244L55.826 3.19696L55.3628 3.44735L55.6006 3.88719ZM49.0596 7.42332L48.6992 7.76995L48.9628 8.044L49.2974 7.86317L49.0596 7.42332ZM44 2.16356L44.3603 1.81693L44 1.44233L43.6397 1.81693L44 2.16356ZM38.9404 7.42332L38.7027 7.86318L39.0372 8.04399L39.3008 7.76995L38.9404 7.42332ZM32.3984 3.88719L32.6362 3.44734L32.173 3.19696L31.9469 3.6725L32.3984 3.88719ZM29.3242 10.353L29.2266 10.8434L29.6085 10.9194L29.7758 10.5677L29.3242 10.353ZM21.9482 8.88426L22.0459 8.39389L21.5121 8.28759L21.4514 8.8285L21.9482 8.88426ZM21.1592 15.9155L21.2081 16.4131L21.6109 16.3735L21.6561 15.9713L21.1592 15.9155ZM13.6748 16.6509L13.6259 16.1533L13.0617 16.2087L13.1872 16.7616L13.6748 16.6509ZM15.2422 23.5532L15.4344 24.0148L15.823 23.853L15.7298 23.4425L15.2422 23.5532ZM12.4375 24.7212V25.2212H12.5374L12.6297 25.1828L12.4375 24.7212ZM9.83887 24.7212L9.64656 24.2596L9.83887 25.2212V24.7212ZM14.0811 22.9536L14.2734 23.4151L14.6619 23.2533L14.5686 22.8428L14.0811 22.9536ZM12.4482 15.7671L12.3993 15.2695L11.835 15.3249L11.9607 15.8779L12.4482 15.7671ZM20.2559 14.9995L20.3048 15.4971L20.7076 15.4575L20.7527 15.0553L20.2559 14.9995ZM21.0762 7.69188L21.1738 7.2015L20.64 7.09527L20.5793 7.6361L21.0762 7.69188ZM28.7559 9.2202L28.6583 9.71058L29.0402 9.78658L29.2074 9.43493L28.7559 9.2202ZM31.9482 2.50731L32.1859 2.06742L31.7228 1.81716L31.4967 2.29257L31.9482 2.50731ZM38.7471 6.18114L38.5094 6.62102L38.8438 6.80175L39.1074 6.52779L38.7471 6.18114ZM44 0.721176L44.3603 0.37452L44 2.98023e-07L43.6397 0.37452L44 0.721176ZM73.9189 51.4888L73.4314 51.5995L75.0642 58.7861L75.5518 58.6753L76.0393 58.5645L74.4065 51.378L73.9189 51.4888ZM75.5518 58.6753L75.5028 58.1777L67.6952 58.9453L67.7441 59.4429L67.7931 59.9405L75.6007 59.1729L75.5518 58.6753ZM67.7441 59.4429L67.2473 59.3871L66.4269 66.6947L66.9238 66.7505L67.4207 66.8063L68.241 59.4986L67.7441 59.4429ZM66.9238 66.7505L67.0214 66.2601L59.3417 64.7318L59.2441 65.2222L59.1465 65.7125L66.8262 67.2409L66.9238 66.7505ZM59.2441 65.2222L58.7926 65.0074L55.6002 71.7203L56.0518 71.935L56.5033 72.1498L59.6957 65.4369L59.2441 65.2222ZM56.0518 71.935L56.2895 71.4952L49.4906 67.8213L49.2529 68.2612L49.0152 68.7011L55.8141 72.3749L56.0518 71.935ZM49.2529 68.2612L48.8926 67.9146L43.6397 73.3745L44 73.7212L44.3603 74.0678L49.6132 68.6079L49.2529 68.2612ZM44 73.7212L44.3603 73.3745L39.1074 67.9146L38.7471 68.2612L38.3868 68.6079L43.6397 74.0678L44 73.7212ZM38.7471 68.2612L38.5094 67.8213L31.7105 71.4952L31.9482 71.935L32.1859 72.3749L38.9848 68.7011L38.7471 68.2612ZM31.9482 71.935L32.3998 71.7203L29.2074 65.0074L28.7559 65.2222L28.3043 65.4369L31.4967 72.1498L31.9482 71.935ZM28.7559 65.2222L28.6583 64.7318L20.9786 66.2601L21.0762 66.7505L21.1738 67.2409L28.8534 65.7125L28.7559 65.2222ZM21.0762 66.7505L21.5731 66.6947L20.7527 59.3871L20.2559 59.4429L19.759 59.4986L20.5793 66.8063L21.0762 66.7505ZM20.2559 59.4429L20.3048 58.9453L12.4972 58.1777L12.4482 58.6753L12.3993 59.1729L20.2069 59.9405L20.2559 59.4429ZM12.4482 58.6753L12.9358 58.7861L14.5686 51.5995L14.0811 51.4888L13.5935 51.378L11.9607 58.5645L12.4482 58.6753ZM14.0811 51.4888L14.2734 51.0272L12.4316 50.2597L12.2393 50.7212L12.0469 51.1827L13.8887 51.9503L14.0811 51.4888ZM12.2393 50.7212V51.2212H14.8389V50.7212V50.2212H12.2393V50.7212ZM14.8389 50.7212L14.6466 51.1827L15.05 51.3507L15.2422 50.8891L15.4344 50.4276L15.0311 50.2596L14.8389 50.7212ZM15.2422 50.8891L14.7546 50.7784L13.1872 57.6798L13.6748 57.7905L14.1624 57.9012L15.7298 50.9999L15.2422 50.8891ZM13.6748 57.7905L13.6258 58.2881L21.1102 59.0244L21.1592 58.5268L21.2081 58.0292L13.7238 57.2929L13.6748 57.7905ZM21.1592 58.5268L20.6623 58.5826L21.4514 65.6129L21.9482 65.5571L22.4451 65.5013L21.6561 58.4711L21.1592 58.5268ZM21.9482 65.5571L22.0458 66.0475L29.4218 64.5797L29.3242 64.0893L29.2266 63.599L21.8507 65.0667L21.9482 65.5571ZM29.3242 64.0893L28.8727 64.3041L31.9469 70.7689L32.3984 70.5542L32.85 70.3395L29.7758 63.8746L29.3242 64.0893ZM32.3984 70.5542L32.6361 70.9941L39.1781 67.4599L38.9404 67.02L38.7028 66.5801L32.1608 70.1143L32.3984 70.5542ZM38.9404 67.02L38.5801 67.3667L43.6397 72.6245L44 72.2778L44.3603 71.9311L39.3007 66.6733L38.9404 67.02ZM44 72.2778L44.3603 72.6245L49.4198 67.3667L49.0596 67.02L48.6993 66.6733L43.6397 71.9311L44 72.2778ZM49.0596 67.02L48.8219 67.4599L55.3629 70.9941L55.6006 70.5542L55.8383 70.1143L49.2972 66.5801L49.0596 67.02ZM55.6006 70.5542L56.0521 70.769L59.1273 64.3041L58.6758 64.0893L58.2243 63.8746L55.1491 70.3394L55.6006 70.5542ZM58.6758 64.0893L58.5782 64.5797L65.9532 66.0475L66.0508 65.5571L66.1484 65.0667L58.7734 63.599L58.6758 64.0893ZM66.0508 65.5571L66.5477 65.613L67.3377 58.5827L66.8408 58.5268L66.3439 58.471L65.5539 65.5013L66.0508 65.5571ZM66.8408 58.5268L66.8898 59.0244L74.3732 58.2881L74.3242 57.7905L74.2753 57.2929L66.7919 58.0292L66.8408 58.5268ZM74.3242 57.7905L74.8118 57.6798L73.2454 50.7785L72.7578 50.8891L72.2702 50.9998L73.8366 57.9012L74.3242 57.7905ZM72.7578 50.8891L72.95 51.3507L73.3534 51.1827L73.1611 50.7212L72.9689 50.2596L72.5656 50.4276L72.7578 50.8891ZM73.1611 50.7212V51.2212H75.7607V50.7212V50.2212H73.1611V50.7212ZM75.7607 50.7212L75.5684 50.2597L73.7266 51.0272L73.9189 51.4888L74.1113 51.9503L75.9531 51.1827L75.7607 50.7212ZM49.2529 6.18114L49.4906 6.62102L56.2895 2.9472L56.0518 2.50731L55.8141 2.06742L49.0152 5.74125L49.2529 6.18114ZM56.0518 2.50731L55.6002 2.72204L58.7926 9.43493L59.2441 9.2202L59.6957 9.00546L56.5033 2.29257L56.0518 2.50731ZM59.2441 9.2202L59.3417 9.71058L67.0214 8.18226L66.9238 7.69188L66.8262 7.2015L59.1465 8.72982L59.2441 9.2202ZM66.9238 7.69188L66.4269 7.74766L67.2473 15.0553L67.7441 14.9995L68.241 14.9437L67.4207 7.6361L66.9238 7.69188ZM67.7441 14.9995L67.6952 15.4971L75.5028 16.2647L75.5518 15.7671L75.6007 15.2695L67.7931 14.5019L67.7441 14.9995ZM75.5518 15.7671L75.0642 15.6563L73.4314 22.8428L73.9189 22.9536L74.4065 23.0644L76.0393 15.8779L75.5518 15.7671ZM73.9189 22.9536L73.7266 23.4151L77.9688 25.1827L78.1611 24.7212L78.3534 24.2596L74.1113 22.4921L73.9189 22.9536ZM78.1611 24.7212V24.2212H75.5615V24.7212V25.2212H78.1611V24.7212ZM75.5615 24.7212L75.7538 24.2596L72.9501 23.0917L72.7578 23.5532L72.5655 24.0148L75.3692 25.1827L75.5615 24.7212ZM72.7578 23.5532L73.2454 23.6639L74.8118 16.7615L74.3242 16.6509L73.8366 16.5402L72.2702 23.4426L72.7578 23.5532ZM74.3242 16.6509L74.3731 16.1533L66.8897 15.4179L66.8408 15.9155L66.7919 16.4131L74.2753 17.1485L74.3242 16.6509ZM66.8408 15.9155L67.3377 15.8597L66.5477 8.82843L66.0508 8.88426L65.5539 8.94009L66.3439 15.9713L66.8408 15.9155ZM66.0508 8.88426L65.9531 8.39389L58.5781 9.86264L58.6758 10.353L58.7734 10.8434L66.1484 9.37463L66.0508 8.88426ZM58.6758 10.353L59.1273 10.1383L56.0521 3.67244L55.6006 3.88719L55.1491 4.10194L58.2243 10.5678L58.6758 10.353ZM55.6006 3.88719L55.3628 3.44735L48.8218 6.98348L49.0596 7.42332L49.2974 7.86317L55.8384 4.32703L55.6006 3.88719ZM49.0596 7.42332L49.4199 7.0767L44.3603 1.81693L44 2.16356L43.6397 2.51019L48.6992 7.76995L49.0596 7.42332ZM44 2.16356L43.6397 1.81693L38.5801 7.0767L38.9404 7.42332L39.3008 7.76995L44.3603 2.51019L44 2.16356ZM38.9404 7.42332L39.1782 6.98347L32.6362 3.44734L32.3984 3.88719L32.1607 4.32705L38.7027 7.86318L38.9404 7.42332ZM32.3984 3.88719L31.9469 3.6725L28.8727 10.1383L29.3242 10.353L29.7758 10.5677L32.85 4.10189L32.3984 3.88719ZM29.3242 10.353L29.4219 9.86264L22.0459 8.39389L21.9482 8.88426L21.8506 9.37463L29.2266 10.8434L29.3242 10.353ZM21.9482 8.88426L21.4514 8.8285L20.6623 15.8598L21.1592 15.9155L21.6561 15.9713L22.4451 8.94002L21.9482 8.88426ZM21.1592 15.9155L21.1103 15.4179L13.6259 16.1533L13.6748 16.6509L13.7237 17.1485L21.2081 16.4131L21.1592 15.9155ZM13.6748 16.6509L13.1872 16.7616L14.7546 23.6639L15.2422 23.5532L15.7298 23.4425L14.1624 16.5401L13.6748 16.6509ZM15.2422 23.5532L15.05 23.0916L12.2453 24.2596L12.4375 24.7212L12.6297 25.1828L15.4344 24.0148L15.2422 23.5532ZM12.4375 24.7212V24.2212H9.83887V24.7212V25.2212H12.4375V24.7212ZM9.83887 24.7212L10.0312 25.1827L14.2734 23.4151L14.0811 22.9536L13.8887 22.4921L9.64656 24.2596L9.83887 24.7212ZM14.0811 22.9536L14.5686 22.8428L12.9358 15.6563L12.4482 15.7671L11.9607 15.8779L13.5935 23.0644L14.0811 22.9536ZM12.4482 15.7671L12.4972 16.2647L20.3048 15.4971L20.2559 14.9995L20.2069 14.5019L12.3993 15.2695L12.4482 15.7671ZM20.2559 14.9995L20.7527 15.0553L21.5731 7.74766L21.0762 7.69188L20.5793 7.6361L19.759 14.9437L20.2559 14.9995ZM21.0762 7.69188L20.9786 8.18226L28.6583 9.71058L28.7559 9.2202L28.8534 8.72982L21.1738 7.2015L21.0762 7.69188ZM28.7559 9.2202L29.2074 9.43493L32.3998 2.72204L31.9482 2.50731L31.4967 2.29257L28.3043 9.00546L28.7559 9.2202ZM31.9482 2.50731L31.7105 2.9472L38.5094 6.62102L38.7471 6.18114L38.9848 5.74125L32.1859 2.06742L31.9482 2.50731ZM38.7471 6.18114L39.1074 6.52779L44.3603 1.06783L44 0.721176L43.6397 0.37452L38.3868 5.83448L38.7471 6.18114ZM44 0.721176L43.6397 1.06783L48.8926 6.52779L49.2529 6.18114L49.6132 5.83448L44.3603 0.37452L44 0.721176Z" fill="#FF6060"/>
<rect x="1" y="25.7212" width="86" height="24" rx="5" stroke="#FF6060" stroke-width="2"/>
<path d="M8.96888 42.7212V42.3852C9.54488 42.3852 9.88088 42.2785 9.97688 42.0652V34.0172C9.88088 33.8038 9.54488 33.6972 8.96888 33.6972V33.3612H15.4169V34.9132H15.0809C15.0809 34.3372 14.9742 34.0012 14.7609 33.9052H11.4489V37.5852H13.6889C13.9022 37.4892 14.0089 37.1532 14.0089 36.5772H14.3449V39.1372H14.0089C14.0089 38.5612 13.9022 38.2252 13.6889 38.1292H11.4489V42.0652C11.5449 42.2785 11.8809 42.3852 12.4569 42.3852V42.7212H8.96888ZM21.2205 42.3372C21.9352 42.3372 22.5325 42.0385 23.0125 41.4412C23.5032 40.8438 23.7485 40.0545 23.7485 39.0732V34.0172C23.6525 33.8038 23.3165 33.6972 22.7405 33.6972V33.3612H25.3005V33.6972C24.7245 33.6972 24.3885 33.8038 24.2925 34.0172V38.7532C24.2925 40.1398 23.9832 41.1745 23.3645 41.8572C22.7565 42.5398 21.9885 42.8812 21.0605 42.8812C18.5005 42.8812 17.2205 41.5052 17.2205 38.7532V34.0172C17.1245 33.8038 16.7885 33.6972 16.2125 33.6972V33.3612H19.7005V33.6972C19.1245 33.6972 18.7885 33.8038 18.6925 34.0172V38.9772C18.6925 40.0332 18.9272 40.8598 19.3965 41.4572C19.8658 42.0438 20.4738 42.3372 21.2205 42.3372ZM26.3751 42.7212V42.3852C26.9511 42.3852 27.2871 42.2785 27.3831 42.0652V34.0172C27.2871 33.8038 26.9511 33.6972 26.3751 33.6972V33.3612H29.8631V33.6972C29.2871 33.6972 28.9511 33.8038 28.8551 34.0172V42.1772H32.5031C32.7698 42.0598 33.0098 41.7238 33.2231 41.1692H33.5431L33.1591 42.7212H26.3751ZM34.297 42.7212V42.3852C34.873 42.3852 35.209 42.2785 35.305 42.0652V34.0172C35.209 33.8038 34.873 33.6972 34.297 33.6972V33.3612H40.745V34.9132H40.409C40.409 34.3372 40.3023 34.0012 40.089 33.9052H36.777V37.5852H39.017C39.2303 37.4892 39.337 37.1532 39.337 36.5772H39.673V39.1372H39.337C39.337 38.5612 39.2303 38.2252 39.017 38.1292H36.777V42.0652C36.873 42.2785 37.209 42.3852 37.785 42.3852V42.7212H34.297ZM41.8126 42.7212V42.3852C42.3886 42.3852 42.7246 42.2785 42.8206 42.0652V34.0172C42.7246 33.8038 42.3886 33.6972 41.8126 33.6972V33.3612H45.3006V33.6972C44.7246 33.6972 44.3886 33.8038 44.2926 34.0172V42.0652C44.3886 42.2785 44.7246 42.3852 45.3006 42.3852V42.7212H41.8126ZM46.6408 42.7212V42.3852C47.2168 42.3852 47.5528 42.2785 47.6488 42.0652V34.0172C47.5528 33.8038 47.2168 33.6972 46.6408 33.6972V33.3612H50.1288V33.6972C49.5528 33.6972 49.2168 33.8038 49.1208 34.0172V42.1772H52.7688C53.0354 42.0598 53.2754 41.7238 53.4888 41.1692H53.8088L53.4248 42.7212H46.6408ZM54.5626 42.7212V42.3852C55.1386 42.3852 55.4746 42.2785 55.5706 42.0652V34.0172C55.4746 33.8038 55.1386 33.6972 54.5626 33.6972V33.3612H58.0506V33.6972C57.4746 33.6972 57.1386 33.8038 57.0426 34.0172V42.1772H60.6906C60.9573 42.0598 61.1973 41.7238 61.4106 41.1692H61.7306L61.3466 42.7212H54.5626ZM62.4845 42.7212V42.3852C63.0605 42.3852 63.3965 42.2785 63.4925 42.0652V34.0172C63.3965 33.8038 63.0605 33.6972 62.4845 33.6972V33.3612H68.9325V34.9132H68.5965C68.5965 34.3372 68.4898 34.0012 68.2765 33.9052H64.9645V37.5852H67.2045C67.4178 37.4892 67.5245 37.1532 67.5245 36.5772H67.8605V39.1372H67.5245C67.5245 38.5612 67.4178 38.2252 67.2045 38.1292H64.9645V42.1772H68.6125C68.8792 42.0598 69.1192 41.7238 69.3325 41.1692H69.6525L69.2685 42.7212H62.4845ZM70.5939 42.7212V42.3852C71.1699 42.3852 71.5059 42.2785 71.6019 42.0652V34.0172C71.5059 33.8038 71.1699 33.6972 70.5939 33.6972V33.3612H74.2739C75.6925 33.3612 76.8339 33.7932 77.6979 34.6572C78.5619 35.5105 78.9939 36.6305 78.9939 38.0172C78.9939 39.4038 78.5725 40.5345 77.7299 41.4092C76.8872 42.2838 75.7992 42.7212 74.4659 42.7212H70.5939ZM73.0739 33.8252V42.1772H74.4659C74.8072 42.1772 75.1379 42.1025 75.4579 41.9532C75.7885 41.7932 76.1032 41.5585 76.4019 41.2492C76.7005 40.9398 76.9405 40.5078 77.1219 39.9532C77.3032 39.3985 77.3939 38.7585 77.3939 38.0332C77.3939 36.6465 77.0792 35.6012 76.4499 34.8972C75.8312 34.1825 75.1059 33.8252 74.2739 33.8252H73.0739Z" fill="#FF6060"/>
</svg>
