<svg width="21" height="21" viewBox="0 0 21 21" fill="none" xmlns="http://www.w3.org/2000/svg">
<path d="M20.4062 8.9111H20.0332C19.7341 8.9111 19.6905 9.12922 19.7061 9.23825L17.7129 15.8095C17.2686 15.5494 16.7532 15.3975 16.2012 15.3974C14.671 15.3974 13.4097 16.543 13.2256 18.0234H8.14844C7.96437 16.543 6.70306 15.3974 5.17285 15.3974C4.45207 15.3974 3.79073 15.6515 3.27344 16.0752L1.20117 9.23825C1.21671 9.12921 1.17283 8.9112 0.874023 8.9111H0.5V7.69626H20.4062V8.9111Z" fill="#2F2225"/>
<circle cx="5.1729" cy="18.3972" r="2.1028" fill="#2F2225"/>
<circle cx="16.2009" cy="18.3972" r="2.1028" fill="#2F2225"/>
<path d="M2.46264 5.07944L1.66824 7.74299H18.9112L19.1449 6.29439L16.4813 3.30374L14.986 3.86449L11.9953 0.5L8.30376 3.02336L5.82712 2.64953L2.46264 5.07944Z" fill="#2F2225"/>
<path d="M10.2833 10.418H9.95826C9.95826 10.9987 9.95826 11.5577 9.95826 12.095C9.96693 12.6323 9.9756 13.1653 9.98426 13.694H10.2573C10.7686 13.694 11.1716 13.5597 11.4663 13.291C11.7696 13.0137 11.9213 12.6063 11.9213 12.069C11.9213 11.4797 11.7826 11.0593 11.5053 10.808C11.2366 10.548 10.8293 10.418 10.2833 10.418ZM10.2573 6.83H9.98426C9.9756 7.298 9.96693 7.77033 9.95826 8.247C9.95826 8.72367 9.95826 9.20467 9.95826 9.69H10.1923C10.6516 9.69 10.9896 9.56 11.2063 9.3C11.4316 9.03133 11.5443 8.65867 11.5443 8.182C11.5443 7.74867 11.4403 7.415 11.2323 7.181C11.0329 6.947 10.7079 6.83 10.2573 6.83ZM6.52626 6.791V6.024H10.9073C11.6959 6.024 12.3156 6.11067 12.7663 6.284C13.2169 6.45733 13.5376 6.69133 13.7283 6.986C13.9189 7.28067 14.0143 7.61433 14.0143 7.987C14.0143 8.273 13.9493 8.546 13.8193 8.806C13.6893 9.05733 13.4596 9.27833 13.1303 9.469C12.8009 9.65967 12.3329 9.807 11.7263 9.911C12.7403 10.015 13.4639 10.2533 13.8973 10.626C14.3306 10.9987 14.5473 11.4883 14.5473 12.095C14.5473 12.355 14.4866 12.628 14.3653 12.914C14.2526 13.1913 14.0446 13.4513 13.7413 13.694C13.4379 13.9367 13.0046 14.1317 12.4413 14.279C11.8866 14.4263 11.1673 14.5 10.2833 14.5H6.52626V13.733L7.42326 13.642C7.43193 13.1047 7.43626 12.5673 7.43626 12.03C7.43626 11.4927 7.43626 10.951 7.43626 10.405V10.132C7.43626 9.59467 7.43626 9.053 7.43626 8.507C7.43626 7.961 7.43193 7.41933 7.42326 6.882L6.52626 6.791Z" fill="#EDEBEB"/>
</svg>
