<svg width="21" height="21" viewBox="0 0 21 21" fill="none" xmlns="http://www.w3.org/2000/svg">
<path d="M20.4062 8.9111H20.0332C19.7341 8.9111 19.6905 9.12922 19.7061 9.23825L17.7129 15.8095C17.2686 15.5494 16.7532 15.3975 16.2012 15.3974C14.671 15.3974 13.4097 16.543 13.2256 18.0234H8.14844C7.96437 16.543 6.70306 15.3974 5.17285 15.3974C4.45207 15.3974 3.79073 15.6515 3.27344 16.0752L1.20117 9.23825C1.21671 9.12921 1.17283 8.9112 0.874023 8.9111H0.5V7.69626H20.4062V8.9111Z" fill="#2F2225"/>
<circle cx="5.1729" cy="18.3972" r="2.1028" fill="#2F2225"/>
<circle cx="16.2009" cy="18.3972" r="2.1028" fill="#2F2225"/>
<path d="M2.46264 5.07944L1.66824 7.74299H18.9112L19.1449 6.29439L16.4813 3.30374L14.986 3.86449L11.9953 0.5L8.30376 3.02336L5.82712 2.64953L2.46264 5.07944Z" fill="#2F2225"/>
<path d="M11.3622 14.76C10.7469 14.76 10.1619 14.6733 9.60721 14.5C9.06121 14.3353 8.57588 14.071 8.15121 13.707C7.73521 13.343 7.40588 12.8793 7.16321 12.316C6.92054 11.744 6.79921 11.0593 6.79921 10.262C6.79921 9.44733 6.92921 8.754 7.18921 8.182C7.44921 7.61 7.80021 7.14633 8.24221 6.791C8.68421 6.43567 9.18688 6.17567 9.75021 6.011C10.3135 5.84633 10.8942 5.764 11.4922 5.764C12.0382 5.764 12.5105 5.82467 12.9092 5.946C13.3079 6.05867 13.6892 6.21467 14.0532 6.414L14.1052 8.481H13.0392L12.6232 6.7C12.3892 6.58733 12.1335 6.531 11.8562 6.531C11.4402 6.531 11.0502 6.65667 10.6862 6.908C10.3222 7.15067 10.0275 7.54933 9.80221 8.104C9.57688 8.65 9.46421 9.37367 9.46421 10.275C9.46421 11.1677 9.57254 11.887 9.78921 12.433C10.0145 12.979 10.3049 13.3733 10.6602 13.616C11.0242 13.8587 11.4055 13.98 11.8042 13.98C12.1075 13.98 12.4109 13.9107 12.7142 13.772L13.1172 12.043H14.1832L14.1312 14.084C13.8105 14.266 13.4162 14.422 12.9482 14.552C12.4889 14.6907 11.9602 14.76 11.3622 14.76Z" fill="#EDEBEB"/>
</svg>
