<svg width="21" height="21" viewBox="0 0 21 21" fill="none" xmlns="http://www.w3.org/2000/svg">
<rect x="1.85" y="1.85" width="17.3" height="17.3" rx="8.65" fill="#CED8F2" stroke="#0E52FF" stroke-width="1.7"/>
<path d="M11.4089 15.26C10.7936 15.26 10.2086 15.1733 9.65393 15C9.10793 14.8353 8.6226 14.571 8.19793 14.207C7.78193 13.843 7.4526 13.3793 7.20993 12.816C6.96727 12.244 6.84593 11.5593 6.84593 10.762C6.84593 9.94733 6.97593 9.254 7.23593 8.682C7.49593 8.11 7.84693 7.64633 8.28893 7.291C8.73093 6.93567 9.2336 6.67567 9.79693 6.511C10.3603 6.34633 10.9409 6.264 11.5389 6.264C12.0849 6.264 12.5573 6.32467 12.9559 6.446C13.3546 6.55867 13.7359 6.71467 14.0999 6.914L14.1519 8.981H13.0859L12.6699 7.2C12.4359 7.08733 12.1803 7.031 11.9029 7.031C11.4869 7.031 11.0969 7.15667 10.7329 7.408C10.3689 7.65067 10.0743 8.04933 9.84893 8.604C9.6236 9.15 9.51093 9.87367 9.51093 10.775C9.51093 11.6677 9.61927 12.387 9.83593 12.933C10.0613 13.479 10.3516 13.8733 10.7069 14.116C11.0709 14.3587 11.4523 14.48 11.8509 14.48C12.1543 14.48 12.4576 14.4107 12.7609 14.272L13.1639 12.543H14.2299L14.1779 14.584C13.8573 14.766 13.4629 14.922 12.9949 15.052C12.5356 15.1907 12.0069 15.26 11.4089 15.26Z" fill="#0E52FF"/>
</svg>
