<svg width="21" height="21" viewBox="0 0 21 21" fill="none" xmlns="http://www.w3.org/2000/svg">
<path d="M14.3492 5.32996C15.4565 5.43521 16.5613 5.9777 17.3473 7.11707C18.141 8.26778 18.6408 10.0751 18.4176 12.7557C18.2205 14.905 17.1914 16.8923 15.5504 18.2938C14.6325 19.0643 13.7618 19.395 13.1656 19.3397C12.3245 19.2321 11.5271 18.9024 10.8561 18.3837L10.8492 18.3778L10.8424 18.3729L10.7281 18.3046C10.4526 18.1667 10.119 18.1895 9.8629 18.3729L9.85606 18.3778L9.84922 18.3837C9.17865 18.9024 8.3813 19.2321 7.54063 19.3397C7.50314 19.3434 7.46078 19.3456 7.4127 19.3456C6.81812 19.3454 6.0006 19.0051 5.15391 18.2938C3.51434 16.893 2.48501 14.9078 2.28672 12.7606H2.2877C2.06379 10.0778 2.56383 8.26845 3.35801 7.11707C4.14363 5.97827 5.24757 5.43548 6.35411 5.32996C7.39753 5.28533 8.42963 5.56454 9.30919 6.12781L9.42051 6.1991L9.55235 6.20203L11.0621 6.24011L11.2096 6.24402L11.3326 6.16296C12.2266 5.57748 13.2817 5.28625 14.3492 5.32996Z" fill="#98DB98" stroke="#1D771D" stroke-width="0.947043"/>
<path d="M11.073 5.77254C10.8684 3.38406 9.54109 2.33343 8.39082 1.87326C8.14324 1.77413 7.86168 1.81478 7.6521 1.97972C7.4425 2.1445 7.33671 2.40876 7.37469 2.67264C7.41285 2.93671 7.58878 3.16032 7.83635 3.25927C8.85368 3.66612 9.41911 4.48481 9.5654 5.73437L11.073 5.77254Z" fill="#1D771D"/>
</svg>
