<svg width="21" height="21" viewBox="0 0 21 21" fill="none" xmlns="http://www.w3.org/2000/svg">
<rect x="1.85" y="1.85" width="17.3" height="17.3" rx="8.65" fill="#CED8F2" stroke="#0E52FF" stroke-width="1.7"/>
<path d="M10.4345 7.33H10.3305C10.3219 7.85867 10.3132 8.39167 10.3045 8.929C10.3045 9.46633 10.3045 10.008 10.3045 10.554V11.022H10.4865C10.9719 11.022 11.3445 10.8443 11.6045 10.489C11.8732 10.125 12.0075 9.65267 12.0075 9.072C12.0075 8.48267 11.8645 8.045 11.5785 7.759C11.3012 7.473 10.9199 7.33 10.4345 7.33ZM6.82054 7.291V6.524H10.3695C11.3489 6.524 12.1289 6.628 12.7095 6.836C13.2902 7.044 13.7105 7.343 13.9705 7.733C14.2305 8.11433 14.3605 8.565 14.3605 9.085C14.3605 9.579 14.2435 10.034 14.0095 10.45C13.7755 10.8573 13.3769 11.1867 12.8135 11.438C12.2589 11.6807 11.5005 11.802 10.5385 11.802H10.3045C10.3045 12.14 10.3045 12.5083 10.3045 12.907C10.3045 13.297 10.3089 13.7 10.3175 14.116L11.4745 14.233V15H6.82054V14.233L7.71754 14.142C7.72621 13.622 7.73054 13.0977 7.73054 12.569C7.73054 12.0317 7.73054 11.4987 7.73054 10.97V10.554C7.73054 10.0253 7.73054 9.49667 7.73054 8.968C7.73054 8.43933 7.72621 7.91067 7.71754 7.382L6.82054 7.291Z" fill="#0E52FF"/>
</svg>
