<svg width="21" height="21" viewBox="0 0 21 21" fill="none" xmlns="http://www.w3.org/2000/svg">
<path d="M10.6074 0.5C11.4206 0.500019 12.1306 0.923838 12.5254 1.55664L12.8018 1.99902L13.2324 1.7041C13.6873 1.39205 14.2404 1.20805 14.8389 1.20801C16.3591 1.20802 17.588 2.39155 17.6484 3.8584L17.667 4.3125L18.1211 4.33691C19.3221 4.40081 20.2646 5.37895 20.2646 6.5625C20.2646 7.12165 20.0556 7.63295 19.708 8.02539L19.4014 8.37207L19.7236 8.70508C20.2057 9.20223 20.5 9.87293 20.5 10.6113C20.5 11.6237 19.946 12.5126 19.1123 12.9951L18.6904 13.2393L18.9229 13.667C19.1365 14.0601 19.2578 14.5087 19.2578 14.9863C19.2577 16.5288 17.987 17.792 16.4043 17.792C16.0475 17.7919 15.707 17.7272 15.3936 17.6104L14.6582 17.3369L14.7207 18.1182C14.7252 18.1756 14.7275 18.2339 14.7275 18.292C14.7273 19.5046 13.7275 20.4998 12.4795 20.5C11.858 20.5 11.2972 20.2526 10.8906 19.8535L10.54 19.5098L10.1895 19.8535C9.78298 20.2524 9.22288 20.4999 8.60156 20.5C7.35336 20.5 6.35377 19.5047 6.35352 18.292C6.35352 18.218 6.35704 18.1444 6.36426 18.0723L6.44824 17.2314L5.6709 17.5615C5.32446 17.7089 4.94219 17.7919 4.53906 17.792C2.95632 17.792 1.68562 16.5288 1.68555 14.9863C1.68555 14.5001 1.81048 14.0436 2.03125 13.6455L2.2666 13.2227L1.85156 12.9736C1.03816 12.4865 0.5 11.609 0.5 10.6113C0.500039 9.85465 0.808832 9.16858 1.3125 8.66797L1.64062 8.3418L1.3418 7.98926C1.01263 7.60171 0.815432 7.10506 0.81543 6.5625C0.815464 5.39804 1.728 4.43253 2.90137 4.34082L3.36426 4.30469L3.3623 3.84082C3.3623 3.83869 3.3623 3.83777 3.3623 3.83301C3.36254 2.31368 4.61457 1.06951 6.17383 1.06934C6.8476 1.06934 7.46472 1.30232 7.94824 1.68945L8.38867 2.04199L8.68555 1.5625C9.05504 0.966117 9.70402 0.553923 10.4561 0.504883L10.6074 0.5Z" fill="#FCB776" stroke="#AA5200"/>
<path d="M10.5481 4.28198C11.9142 4.282 13.0901 4.83713 14.0422 5.58179C14.4734 5.42824 15.0212 5.27515 15.5754 5.27515C16.4581 5.27515 17.2313 5.52936 17.7981 5.94702C18.3579 6.35961 18.7541 6.96711 18.7541 7.65308C18.754 8.28309 18.4952 8.7966 18.0119 9.15601C17.5651 9.48828 16.964 9.66125 16.3059 9.75366C16.1737 9.77222 16.051 9.78511 15.9387 9.79468C15.9385 9.79827 15.9388 9.80186 15.9387 9.80542C15.929 10.046 15.9153 10.2049 15.9152 10.3689C15.9152 11.4163 15.597 12.1667 15.2434 12.8572C14.8882 13.5506 14.5288 14.1368 14.2873 14.9929C13.8267 16.6256 12.5229 18.1482 10.5256 18.1482C8.52728 18.1482 7.25402 16.7577 6.78829 14.9822C6.56606 14.1348 6.20115 13.5137 5.83614 12.7878C5.47628 12.0721 5.13888 11.2866 5.13888 10.2458C5.13887 10.1169 5.13484 9.9665 5.13204 9.80737C4.29861 9.80347 3.60355 9.62308 3.10177 9.24292C2.57403 8.84304 2.32449 8.27049 2.32442 7.65308C2.32442 6.91783 2.83509 6.31319 3.42696 5.92749C4.0408 5.52754 4.85983 5.27515 5.73946 5.27515C6.09011 5.27522 6.41843 5.35643 6.69161 5.44409C6.81282 5.48299 6.95938 5.5364 7.092 5.58569C8.02676 4.87144 9.2044 4.28198 10.5481 4.28198Z" stroke="#AA5200" stroke-width="1.2"/>
<path d="M11.0618 14.3419C11.3457 14.211 11.3457 14.5562 11.2629 14.6753C11.1801 14.7944 11.1919 14.8063 11.0618 15.0087C10.9577 15.1706 10.9238 15.4255 10.9199 15.5326V17.5381C10.9199 17.5381 10.7056 17.6052 10.5643 17.6052C10.423 17.6052 10.2087 17.5381 10.2087 17.5381V15.5326C10.2048 15.4255 10.1709 15.1706 10.0668 15.0087C9.93668 14.8063 9.94852 14.7944 9.86573 14.6753C9.78293 14.5562 9.7829 14.211 10.0668 14.3419C10.3428 14.4693 10.3057 14.5289 10.5643 14.5321C10.8229 14.5289 10.7858 14.4693 11.0618 14.3419Z" fill="#AA5200"/>
<ellipse cx="8.32879" cy="10.7188" rx="0.845786" ry="0.851367" fill="#AA5200"/>
<ellipse cx="12.7117" cy="10.7188" rx="0.845786" ry="0.851367" fill="#AA5200"/>
</svg>
