<svg width="21" height="21" viewBox="0 0 21 21" fill="none" xmlns="http://www.w3.org/2000/svg">
<path d="M15.7336 11.8623L15.7301 7.92204C15.73 7.885 15.7482 7.85034 15.7788 7.82937L19.9413 4.9702C19.9718 4.94925 19.99 4.91461 19.99 4.8776L19.9893 2.90905C19.9893 2.84704 19.939 2.79678 19.877 2.79678H9.63595C9.61355 2.79678 9.59167 2.80348 9.57311 2.81601L0.947833 8.64003C0.916909 8.66091 0.898376 8.69579 0.898376 8.7331V10.6929C0.898376 10.7549 0.948655 10.8052 1.01068 10.8052H4.30457C4.61467 10.8052 4.86607 11.0566 4.86607 11.3667V15.3293C4.86607 15.367 4.8472 15.4021 4.81582 15.4229L0.948623 17.9868C0.917243 18.0076 0.898376 18.0427 0.898376 18.0804V19.9786C0.898376 20.0406 0.948655 20.0909 1.01068 20.0909H11.2736C11.295 20.0909 11.316 20.0848 11.334 20.0733L19.9374 14.5832C19.9697 14.5626 19.9893 14.5269 19.9893 14.4885V12.5356C19.9893 12.4736 19.939 12.4233 19.877 12.4233H16.2951C15.9852 12.4233 15.7339 12.1722 15.7336 11.8623Z" fill="#E1B7FB" stroke="#6E0BC6"/>
<path d="M0.898376 8.6925H11.3422" stroke="#6E0BC6" stroke-width="0.673797" stroke-linecap="round"/>
<path d="M11.3422 8.74866L19.877 2.90909" stroke="#6E0BC6" stroke-width="0.673797" stroke-linecap="round"/>
<path d="M11.2299 18.0695L19.877 12.4546" stroke="#6E0BC6" stroke-width="0.673797" stroke-linecap="round"/>
<path d="M11.3422 10.6578L15.8342 7.62567" stroke="#6E0BC6" stroke-width="0.673797" stroke-linecap="round"/>
<path d="M11.3423 8.74866V10.6016C11.3423 10.6636 11.292 10.7139 11.23 10.7139H7.69254C7.38243 10.7139 7.13104 10.9653 7.13104 11.2754V17.4519C7.13104 17.762 7.38243 18.0134 7.69254 18.0134H11.23C11.292 18.0134 11.3423 18.0636 11.3423 18.1257V20.0348" stroke="#6E0BC6" stroke-width="0.673797" stroke-linecap="round"/>
<path d="M0.954529 18.0134H4.45067C4.76077 18.0134 5.01216 17.762 5.01216 17.4519V13.9144" stroke="#6E0BC6" stroke-width="0.673797" stroke-linecap="round"/>
<path d="M15.0481 12.7353L8.70319 16.8904" stroke="#6E0BC6" stroke-width="0.224599" stroke-linecap="round"/>
</svg>
