<svg width="21" height="21" viewBox="0 0 21 21" fill="none" xmlns="http://www.w3.org/2000/svg">
<path d="M15.874 7.48047L15.8936 8.23535H18.4619L18.4834 8.36035L20.1475 18.0918L20.1777 18.2666H13.1816C12.5096 18.2666 11.9426 18.2381 11.5117 18.1543C11.0914 18.0726 10.7506 17.9298 10.5996 17.6582L10.6006 17.6572C10.563 17.5957 10.5484 17.5269 10.542 17.4727C10.535 17.4133 10.5352 17.3522 10.5352 17.3076V17.2744L10.5361 17.2646L10.5957 16.833C9.72349 17.1224 8.84858 17.4241 8.16895 17.6631C7.79944 17.793 7.48769 17.9043 7.26562 17.9844C7.15461 18.0244 7.06591 18.0563 7.00391 18.0791C6.97291 18.0905 6.94851 18.1 6.93164 18.1064C6.91023 18.1146 6.90944 18.1151 6.91504 18.1123L6.91016 18.1152C6.38356 18.3547 5.784 18.498 5.16016 18.498C2.78915 18.4978 0.849609 16.5586 0.849609 14.1875C0.849613 13.4447 1.04201 12.7493 1.37793 12.1494L1.39746 12.1094L1.40234 12.0986H1.40332C1.54021 11.8707 1.70413 11.6112 1.89453 11.3945L6.97852 4.07031L6.97949 4.06934C7.51463 3.31533 8.36844 2.84967 9.29785 2.84961C10.8368 2.84961 12.0829 4.0958 12.083 5.63477C12.083 5.77039 12.0831 5.90146 12.0566 6.03418L12.0547 6.04492L11.7363 7.18164C12.2128 7.01946 12.6785 6.86852 13.0752 6.75098C13.4229 6.64794 13.7274 6.56686 13.9395 6.52734L14.1191 6.50195C14.7601 6.45482 15.3266 6.59333 15.627 6.9209H15.626C15.7662 7.06345 15.8457 7.25512 15.8721 7.44043L15.874 7.4502V7.48047Z" fill="#E1B7FB" stroke="#6E0BC6" stroke-width="0.3"/>
<path d="M5.16045 12.2572C6.23705 12.2572 7.11347 13.1336 7.11357 14.2103C7.11357 15.287 6.23712 16.1635 5.16045 16.1635C4.08385 16.1634 3.20732 15.2869 3.20732 14.2103C3.20742 13.1338 4.08392 12.2573 5.16045 12.2572ZM5.16045 12.9037C4.43434 12.9038 3.85479 13.4842 3.85478 14.2103C3.85478 14.9365 4.43429 15.5169 5.16045 15.517C5.8865 15.517 6.46709 14.9366 6.46709 14.2103C6.46708 13.4841 5.88664 12.9037 5.16045 12.9037Z" fill="#6E0BC6" stroke="#6E0BC6" stroke-width="0.3"/>
<path d="M5.18359 10.5469C4.07664 10.5469 3.10195 11.0317 2.43555 11.7832L1.93555 12.4873C1.65068 12.9941 1.49707 13.591 1.49707 14.2109C1.49727 16.2297 3.13869 17.8732 5.18359 17.8965C6.78007 17.8965 8.15841 16.8323 8.64746 15.3877L8.71484 15.1865C8.80314 14.8772 8.84762 14.5444 8.84766 14.2109C8.84766 12.1905 7.2042 10.5469 5.18359 10.5469ZM12.1699 16.9316C11.7431 16.8825 11.4355 16.9635 11.25 17.251L11.2461 17.2568L11.2412 17.2627C11.2076 17.3047 11.1967 17.3348 11.1934 17.3525C11.1912 17.3638 11.1936 17.374 11.1953 17.3838C11.2063 17.3954 11.2269 17.4134 11.2666 17.4336C11.3211 17.4613 11.3967 17.4873 11.4912 17.5107C11.68 17.5576 11.9247 17.5894 12.1875 17.6094C12.7108 17.6492 13.2805 17.6426 13.5723 17.6426C13.841 17.6382 14.1886 17.6373 14.582 17.6357C14.2748 17.5594 13.9446 17.4459 13.6182 17.334C13.103 17.1584 12.6007 16.9813 12.1699 16.9316ZM15.9326 9.06348C15.9408 9.27799 15.9527 9.58478 15.9668 9.95312C15.995 10.6899 16.0327 11.674 16.0703 12.6621C16.1453 14.6348 16.2207 16.6339 16.2207 16.707V16.7168C16.1952 17.0979 16.04 17.4007 15.7842 17.5713L15.7822 17.5723C15.746 17.5958 15.7085 17.6162 15.6699 17.6338C17.0968 17.6342 18.7044 17.6412 19.4287 17.6426L17.9326 8.88281H15.9258C15.9277 8.93235 15.9299 8.99293 15.9326 9.06348ZM13.9805 15.8613C13.8066 15.884 13.434 15.9789 12.9355 16.1172C12.7546 16.1674 12.559 16.225 12.3525 16.2842C12.3584 16.2851 12.3643 16.2862 12.3701 16.2871C12.6076 16.326 12.8528 16.3904 13.0957 16.4648L13.8086 16.7041L13.8105 16.7051C14.1591 16.8329 14.5027 16.9556 14.7979 17.0225C14.9451 17.0558 15.0744 17.0735 15.1816 17.0723C15.2853 17.071 15.3569 17.0515 15.4053 17.0225C15.4743 16.9643 15.5315 16.8703 15.5518 16.6465C15.571 16.4351 15.5157 16.2951 15.3867 16.166C15.2752 16.0546 15.0974 15.9653 14.8535 15.9111C14.6119 15.8574 14.3158 15.8392 13.9805 15.8613ZM14.1113 7.20117C14.0845 7.20613 14.0494 7.21351 14.0068 7.22363C13.9215 7.24393 13.8105 7.27371 13.6816 7.30957C13.4238 7.38131 13.099 7.47711 12.7773 7.5752C12.4561 7.67317 12.1382 7.77275 11.8936 7.85059C11.7712 7.88952 11.6666 7.92313 11.5898 7.94824C11.5641 7.95667 11.5416 7.96433 11.5225 7.9707L9.21094 15.6406L9.20801 15.6494C9.04157 16.0987 8.81362 16.5266 8.51855 16.9014C8.90262 16.7681 9.36888 16.606 9.80176 16.458C10.144 16.341 10.4655 16.2318 10.709 16.1504C10.8307 16.1097 10.9338 16.0753 11.0098 16.0508C11.0677 16.0321 11.1184 16.0166 11.1484 16.0088C11.7721 15.8125 12.364 15.6276 12.8486 15.4883C13.3267 15.3509 13.7192 15.252 13.9355 15.2393H13.9365C14.1709 15.2276 14.4951 15.221 14.8252 15.2725C15.0574 15.3087 15.2994 15.3754 15.5176 15.4932L15.2275 7.55566C15.2076 7.47835 15.1932 7.4432 15.1553 7.40527C15.0808 7.33091 14.9636 7.27592 14.79 7.24121C14.6171 7.20664 14.4038 7.19532 14.1523 7.19531C14.1523 7.19534 14.1404 7.19581 14.1113 7.20117ZM9.32129 3.51953C8.6117 3.51954 7.96258 3.88568 7.54883 4.47363L3.49707 10.2295C4.01359 10.016 4.58049 9.90045 5.16016 9.90039C7.1309 9.90039 8.80599 11.2502 9.30469 13.083L10.9805 7.5332L11.415 6.06934C11.4379 5.93219 11.46 5.78243 11.46 5.6582C11.4599 4.46978 10.5098 3.51953 9.32129 3.51953ZM15.874 7.48047L15.8936 8.23535H18.4619L18.4834 8.36035L20.1475 18.0918L20.1777 18.2666H13.1816C12.5096 18.2666 11.9426 18.2381 11.5117 18.1543C11.0914 18.0726 10.7506 17.9298 10.5996 17.6582L10.6006 17.6572C10.563 17.5957 10.5484 17.5269 10.542 17.4727C10.535 17.4133 10.5352 17.3522 10.5352 17.3076V17.2744L10.5361 17.2646L10.5957 16.833C9.72349 17.1224 8.84858 17.4241 8.16895 17.6631C7.79944 17.793 7.48769 17.9043 7.26562 17.9844C7.15461 18.0244 7.06591 18.0563 7.00391 18.0791C6.97291 18.0905 6.94851 18.1 6.93164 18.1064C6.91023 18.1146 6.90944 18.1151 6.91504 18.1123L6.91016 18.1152C6.38356 18.3547 5.784 18.498 5.16016 18.498C2.78915 18.4978 0.849609 16.5586 0.849609 14.1875C0.849613 13.4447 1.04201 12.7493 1.37793 12.1494L1.39746 12.1094L1.40234 12.0986H1.40332C1.54021 11.8707 1.70413 11.6112 1.89453 11.3945L6.97852 4.07031L6.97949 4.06934C7.51463 3.31533 8.36844 2.84967 9.29785 2.84961C10.8368 2.84961 12.0829 4.0958 12.083 5.63477C12.083 5.77039 12.0831 5.90146 12.0566 6.03418L12.0547 6.04492L11.7363 7.18164C12.2127 7.01946 12.6785 6.86852 13.0752 6.75098C13.4229 6.64794 13.7274 6.56686 13.9395 6.52734L14.1191 6.50195C14.7601 6.45482 15.3266 6.59332 15.627 6.9209H15.626C15.7662 7.06345 15.8457 7.25512 15.8721 7.44043L15.874 7.4502V7.48047Z" fill="#6E0BC6" stroke="#6E0BC6" stroke-width="0.3"/>
<path d="M5.1609 10.4312C7.2532 10.4313 8.96259 12.1155 8.96266 14.2105C8.96266 16.3041 7.25449 18.0121 5.1609 18.0122C3.06852 18.0122 1.35832 16.3287 1.35817 14.2339C1.35817 12.1402 3.06715 10.4312 5.1609 10.4312ZM5.1609 11.0786C3.41963 11.0786 2.02809 12.5118 2.02809 14.2339C2.02824 15.9546 3.41857 17.3658 5.1609 17.3658C6.8795 17.3656 8.29274 15.9318 8.29274 14.2105C8.29267 12.4899 6.90316 11.0788 5.1609 11.0786Z" fill="#6E0BC6" stroke="#6E0BC6" stroke-width="0.3"/>
<path d="M5.16077 11.3557C6.74414 11.3558 8.03757 12.6234 8.03772 14.2102C8.03772 15.7954 6.7459 17.0881 5.16077 17.0882C3.57713 17.0882 2.28274 15.8205 2.28284 14.2337C2.28284 12.6485 3.57557 11.3557 5.16077 11.3557ZM5.16077 12.0032C3.92885 12.0032 2.95276 13.0193 2.95276 14.2337C2.95281 15.4461 3.927 16.4417 5.16077 16.4417C6.37034 16.4416 7.36877 15.4236 7.36877 14.2102C7.36863 12.9979 6.39441 12.0033 5.16077 12.0032Z" fill="#6E0BC6" stroke="#6E0BC6" stroke-width="0.3"/>
</svg>
