<svg width="21" height="21" viewBox="0 0 21 21" fill="none" xmlns="http://www.w3.org/2000/svg">
<path d="M7.45449 7.50639C6.31901 10.2213 8.2102 12.8746 9.41103 13.8993C10.994 13.3778 14.2488 12.6999 15.596 9.43618C16.5759 7.06206 15.022 3.04216 14.0169 1.2944C12.3781 2.25875 8.75178 4.40454 7.45449 7.50639Z" fill="#98DB98" stroke="#1D771D" stroke-width="0.8"/>
<path d="M12.3689 5.92354L14.0774 1.35956M12.3689 5.92354L11.5084 4.73461M12.3689 5.92354L11.5924 7.99769M11.5924 7.99769L14.3205 7.49348M11.5924 7.99769L10.5097 10.8898M10.5097 10.8898L8.7578 8.83013M10.5097 10.8898L9.96838 12.3358M9.42705 13.7819L9.96838 12.3358M9.96838 12.3358L12.17 11.6721" stroke="#1D771D" stroke-width="0.6" stroke-linecap="round"/>
<path d="M3.85524 16.3051C5.68893 18.5507 9.11285 18.7426 10.6909 18.5027C11.0809 17.1604 12.2388 14.6168 10.0248 11.9292C8.4142 9.97424 3.93984 8.80842 1.81539 8.52136C1.79487 10.1435 1.76022 13.7395 3.85524 16.3051Z" fill="#98DB98" stroke="#1D771D" stroke-width="0.8"/>
<path d="M5.09856 12.158L1.90712 8.51672M5.09856 12.158L3.55725 12.0807M5.09856 12.158L6.54895 13.8128M6.54895 13.8128L7.57725 11.7159M6.54895 13.8128L8.5713 16.1203M8.5713 16.1203L5.7591 16.1607M8.5713 16.1203L9.58247 17.274M10.5936 18.4277L9.58247 17.274M9.58247 17.274L10.1805 15.4409" stroke="#1D771D" stroke-width="0.6" stroke-linecap="round"/>
<path d="M10.5467 13.2338C8.87139 15.6148 10.0335 18.4688 10.9212 19.6537C12.5163 19.436 15.7064 19.3635 17.7037 16.4981C19.1566 14.4138 18.6191 10.3201 18.0782 8.48242C16.3306 9.11111 12.4608 10.5136 10.5467 13.2338Z" fill="#98DB98" stroke="#1D771D" stroke-width="0.8"/>
<path d="M10.9628 19.5448L11.7959 18.2655M18.1198 8.55496L15.4903 12.5927M15.4903 12.5927L14.9574 11.3115M15.4903 12.5927L14.2953 14.4276M14.2953 14.4276H16.9547M14.2953 14.4276L12.6291 16.9862M12.6291 16.9862L11.4622 14.7209M12.6291 16.9862L11.7959 18.2655M11.7959 18.2655L14.0004 18.0215" stroke="#1D771D" stroke-width="0.6" stroke-linecap="round"/>
</svg>
