<svg width="21" height="21" viewBox="0 0 21 21" fill="none" xmlns="http://www.w3.org/2000/svg">
<path d="M1.41949 3.16028C1.41949 2.33411 2.08924 1.66437 2.91541 1.66437C3.73525 1.66437 4.40106 2.3239 4.4112 3.14135H16.6439C16.654 2.3239 17.3198 1.66437 18.1396 1.66437C18.9658 1.66437 19.6356 2.33411 19.6356 3.16028V17.8165C19.6356 18.5049 19.1705 19.0848 18.5374 19.2589V19.3124H3.27521V19.2688C3.15996 19.2973 3.03944 19.3124 2.91541 19.3124C2.08924 19.3124 1.41949 18.6426 1.41949 17.8165V3.16028Z" fill="#E1B7FB"/>
<path opacity="0.5" d="M13.2439 13.4923L15.1331 14.3342L14.784 9.67275L16.1394 9.22098V18.0717H13.6546L12.4019 14.4369L13.2439 13.4923Z" fill="#6E0BC6"/>
<path opacity="0.5" d="M6.69312 3.2247H13.5519L12.3198 5.0318L8.84932 5.64786L9.80419 9.13885L11.0261 8.85136L9.41402 12.4039L8.13055 16.3673H6.69312L5.56365 10.4531L4.68066 9.6933V6.01749H6.96007L6.69312 3.2247Z" fill="#6E0BC6"/>
<mask id="path-5-outside-1_435_3569" maskUnits="userSpaceOnUse" x="0" y="0" width="21" height="21" fill="black">
<rect fill="white" width="21" height="21"/>
<path d="M18.1 1C17.0511 1.00119 16.2012 1.85113 16.2 2.9H4.8C4.8 1.85059 3.94941 1 2.9 1C1.85059 1 1 1.85059 1 2.9V18.1C1.00119 19.1489 1.85113 19.9988 2.9 20H18.1C19.1489 19.9988 19.9988 19.1489 20 18.1V2.9C19.9988 1.85113 19.1489 1.00119 18.1 1ZM16.8334 2.9C16.8334 2.20049 17.4005 1.63338 18.1 1.63338C18.7995 1.63338 19.3666 2.20049 19.3666 2.9V16.6879C18.6475 16.0374 17.5525 16.0374 16.8334 16.6879V2.9ZM15.4634 16.3897L15.3746 16.0081L16.2 16.4121V17.164L15.4634 16.3897ZM13.1505 15.6414V15.0745C13.1519 14.8222 12.9931 14.5967 12.7551 14.5128L12.2392 14.3363L12.1149 14.2027L13.2885 13.849L14.1089 14.5002C14.2164 14.591 14.3526 14.6407 14.4933 14.6406H14.9937C15.1967 14.6407 15.386 14.5375 15.4957 14.3666C15.6056 14.1957 15.6209 13.9807 15.5364 13.7961L14.8295 12.2987L15.0295 12.2294C15.3261 12.1207 15.4862 11.7993 15.3941 11.4972L15.1436 10.6919C15.0508 10.3975 15.0932 10.0771 15.2593 9.81705L15.3472 9.67537H15.6682C15.8931 9.67484 16.0987 9.54787 16.2 9.34695V15.7069L15.5912 15.4089C15.3826 15.3024 15.1309 15.328 14.9479 15.4741C14.7673 15.615 14.6857 15.8484 14.7391 16.0711L14.8508 16.5489C14.8768 16.6428 14.9248 16.7294 14.9905 16.8015L15.8635 17.7289L14.3093 18.095L13.1505 15.6414ZM8.51453 6.99433C8.51546 7.03939 8.52593 7.08379 8.54542 7.12448L9.47753 9.08148C9.54605 9.22448 9.67024 9.33329 9.82106 9.38233C9.97042 9.43044 10.1332 9.4144 10.2701 9.3378C10.3401 9.29817 10.4115 9.25457 10.4838 9.2107C10.5553 9.16709 10.6276 9.12283 10.7065 9.0783C10.8262 9.01216 10.9755 8.93052 11.0466 8.95372C11.0863 8.96869 11.1156 9.00275 11.1242 9.04437C11.1242 9.04649 11.123 9.10374 10.9978 9.25245C10.7587 9.53912 10.5197 9.82923 10.2825 10.1273L9.50043 11.116C9.46822 11.1559 9.43575 11.1961 9.39215 11.2552C9.163 11.6098 9.06731 12.0345 9.12218 12.4532L9.15624 12.6999C9.19176 12.9724 9.12708 13.2485 8.97401 13.4767L8.30524 14.4642C8.24997 14.5452 8.20226 14.6311 8.16264 14.7208L7.44389 16.3429H6.80441C6.80374 16.3302 6.80587 16.3197 6.8003 16.3227L6.88234 16.2399C7.02786 16.0754 7.08445 15.8505 7.03409 15.6369L6.38972 12.7816C6.38561 12.7562 6.37978 12.7311 6.37236 12.7065L5.90597 11.339C5.88411 11.2738 5.87297 11.2055 5.87324 11.1367V11.0702C5.88278 10.631 5.64979 10.2221 5.26717 10.0065L5.23152 9.98725C5.09899 9.91263 4.95161 9.86837 4.79985 9.85763V5.86424H5.25259C5.38817 5.8657 5.51527 5.93037 5.59612 6.03932C5.79982 6.28782 6.10304 6.4336 6.42431 6.4373H6.78521C6.92755 6.4373 7.05227 6.3424 7.09044 6.20537L7.40401 5.07473C7.43463 4.9642 7.40308 4.84585 7.32171 4.76513C7.11814 4.56368 6.95141 4.3283 6.82883 4.06933C6.7285 3.85012 6.5676 3.66418 6.36509 3.53349H13.2913C12.9833 3.80651 12.7028 4.10909 12.4538 4.4367C12.2317 4.61509 11.9843 4.75956 11.7199 4.86532C10.5717 4.95293 9.17119 5.10136 8.89009 5.31688C8.55889 5.56763 8.50313 6.36743 8.51453 6.99433ZM4.93134 3.53362C5.03697 3.62294 5.16393 3.68338 5.2999 3.70896C5.48518 3.73547 6.15314 4.06918 6.23572 4.29117C6.36004 4.5801 6.53273 4.84584 6.74625 5.07669L6.54426 5.80405H6.42432C6.29271 5.80074 6.16906 5.74004 6.08596 5.63799C5.88504 5.38206 5.57795 5.23217 5.25261 5.23098H4.79986V3.53363L4.93134 3.53362ZM2.89986 1.63362C3.5991 1.63428 4.16581 2.201 4.16649 2.90024V16.6881C3.44737 16.0377 2.35236 16.0377 1.63324 16.6881V2.90024C1.63391 2.201 2.20063 1.63429 2.89986 1.63362ZM18.0999 19.3667H2.89986C2.20036 19.3667 1.63324 18.7996 1.63324 18.1001C1.63324 17.4006 2.20036 16.8335 2.89986 16.8335C3.59937 16.8335 4.16649 17.4006 4.16649 18.1001C4.16649 18.275 4.3083 18.4167 4.48324 18.4167C4.65805 18.4167 4.79986 18.275 4.79986 18.1001V10.493C4.84373 10.5024 4.88588 10.5187 4.92484 10.5411L4.96712 10.564C5.14419 10.6698 5.24889 10.8639 5.23987 11.0699V11.1364C5.23948 11.2758 5.2624 11.4143 5.3076 11.5462L5.76563 12.8892C5.87627 13.4424 6.71134 15.5099 6.33222 15.8969C6.16404 16.1028 6.12561 16.3855 6.23256 16.6289C6.32533 16.8379 6.53156 16.9734 6.76018 16.9758H7.44391C7.68976 16.9731 7.91097 16.8256 8.00797 16.5996L8.73968 14.9812C8.76393 14.9258 8.79322 14.8727 8.82715 14.8226L9.49697 13.8336C9.73738 13.4774 9.83944 13.0457 9.7843 12.6196L9.74998 12.3697C9.71459 12.1083 9.77131 11.8429 9.91008 11.6186C9.93738 11.5827 9.96548 11.5481 9.99331 11.5134L10.7791 10.5198C11.012 10.2273 11.2479 9.94087 11.483 9.65923C11.6783 9.46229 11.774 9.18742 11.7433 8.91175C11.6885 8.65145 11.5006 8.43926 11.2488 8.35325C10.9498 8.28699 10.6368 8.35127 10.3883 8.53018C10.3099 8.57472 10.2315 8.62229 10.1538 8.66961C10.1084 8.69744 10.0636 8.72461 10.0211 8.75006L9.14694 6.915C9.12998 6.54575 9.17464 6.17637 9.27895 5.82172C10.1167 5.64598 10.9669 5.53597 11.8219 5.49277C11.8571 5.49025 11.8918 5.48164 11.9242 5.46732C12.2607 5.32114 12.8479 5.03355 13.0035 4.7499C13.2963 4.40546 13.6129 4.08205 13.951 3.78202L14.6021 3.53339H16.1998V8.17753L16.1546 8.18337C15.8581 8.2222 15.6356 8.47375 15.633 8.77274V9.04205H15.3289C15.1218 9.04231 14.9292 9.14913 14.8193 9.32474L14.7228 9.48033C14.4575 9.89701 14.3902 10.4098 14.5389 10.8808L14.7769 11.6466L14.5763 11.7162C14.4171 11.7712 14.2889 11.8914 14.2237 12.0467C14.1596 12.2003 14.1638 12.3738 14.2351 12.5242L14.9356 14.0073H14.5058L13.6652 13.3399C13.5112 13.2176 13.3066 13.1797 13.1191 13.2388L11.8654 13.6161C11.6715 13.6778 11.5225 13.8342 11.4702 14.0309C11.418 14.2277 11.4697 14.4373 11.6075 14.5871L11.7832 14.7758C11.8485 14.8409 11.9269 14.8913 12.0132 14.9236L12.517 15.1005V15.6414C12.5179 15.7283 12.5369 15.8141 12.5727 15.8933L13.7476 18.3893C13.8475 18.5991 14.0588 18.733 14.2912 18.7338C14.3377 18.7338 14.3841 18.7283 14.4294 18.7173L16.0814 18.3281C16.1403 18.3135 16.1965 18.29 16.2484 18.2584C16.3031 18.3553 16.4053 18.4156 16.5165 18.4167C16.6005 18.4169 16.6811 18.3835 16.7404 18.3241C16.7998 18.2647 16.8332 18.1841 16.8332 18.1001C16.8332 17.4006 17.4003 16.8335 18.0998 16.8335C18.7993 16.8335 19.3665 17.4006 19.3665 18.1001C19.3665 18.7996 18.7994 19.3667 18.0999 19.3667Z"/>
</mask>
<path d="M18.1 1C17.0511 1.00119 16.2012 1.85113 16.2 2.9H4.8C4.8 1.85059 3.94941 1 2.9 1C1.85059 1 1 1.85059 1 2.9V18.1C1.00119 19.1489 1.85113 19.9988 2.9 20H18.1C19.1489 19.9988 19.9988 19.1489 20 18.1V2.9C19.9988 1.85113 19.1489 1.00119 18.1 1ZM16.8334 2.9C16.8334 2.20049 17.4005 1.63338 18.1 1.63338C18.7995 1.63338 19.3666 2.20049 19.3666 2.9V16.6879C18.6475 16.0374 17.5525 16.0374 16.8334 16.6879V2.9ZM15.4634 16.3897L15.3746 16.0081L16.2 16.4121V17.164L15.4634 16.3897ZM13.1505 15.6414V15.0745C13.1519 14.8222 12.9931 14.5967 12.7551 14.5128L12.2392 14.3363L12.1149 14.2027L13.2885 13.849L14.1089 14.5002C14.2164 14.591 14.3526 14.6407 14.4933 14.6406H14.9937C15.1967 14.6407 15.386 14.5375 15.4957 14.3666C15.6056 14.1957 15.6209 13.9807 15.5364 13.7961L14.8295 12.2987L15.0295 12.2294C15.3261 12.1207 15.4862 11.7993 15.3941 11.4972L15.1436 10.6919C15.0508 10.3975 15.0932 10.0771 15.2593 9.81705L15.3472 9.67537H15.6682C15.8931 9.67484 16.0987 9.54787 16.2 9.34695V15.7069L15.5912 15.4089C15.3826 15.3024 15.1309 15.328 14.9479 15.4741C14.7673 15.615 14.6857 15.8484 14.7391 16.0711L14.8508 16.5489C14.8768 16.6428 14.9248 16.7294 14.9905 16.8015L15.8635 17.7289L14.3093 18.095L13.1505 15.6414ZM8.51453 6.99433C8.51546 7.03939 8.52593 7.08379 8.54542 7.12448L9.47753 9.08148C9.54605 9.22448 9.67024 9.33329 9.82106 9.38233C9.97042 9.43044 10.1332 9.4144 10.2701 9.3378C10.3401 9.29817 10.4115 9.25457 10.4838 9.2107C10.5553 9.16709 10.6276 9.12283 10.7065 9.0783C10.8262 9.01216 10.9755 8.93052 11.0466 8.95372C11.0863 8.96869 11.1156 9.00275 11.1242 9.04437C11.1242 9.04649 11.123 9.10374 10.9978 9.25245C10.7587 9.53912 10.5197 9.82923 10.2825 10.1273L9.50043 11.116C9.46822 11.1559 9.43575 11.1961 9.39215 11.2552C9.163 11.6098 9.06731 12.0345 9.12218 12.4532L9.15624 12.6999C9.19176 12.9724 9.12708 13.2485 8.97401 13.4767L8.30524 14.4642C8.24997 14.5452 8.20226 14.6311 8.16264 14.7208L7.44389 16.3429H6.80441C6.80374 16.3302 6.80587 16.3197 6.8003 16.3227L6.88234 16.2399C7.02786 16.0754 7.08445 15.8505 7.03409 15.6369L6.38972 12.7816C6.38561 12.7562 6.37978 12.7311 6.37236 12.7065L5.90597 11.339C5.88411 11.2738 5.87297 11.2055 5.87324 11.1367V11.0702C5.88278 10.631 5.64979 10.2221 5.26717 10.0065L5.23152 9.98725C5.09899 9.91263 4.95161 9.86837 4.79985 9.85763V5.86424H5.25259C5.38817 5.8657 5.51527 5.93037 5.59612 6.03932C5.79982 6.28782 6.10304 6.4336 6.42431 6.4373H6.78521C6.92755 6.4373 7.05227 6.3424 7.09044 6.20537L7.40401 5.07473C7.43463 4.9642 7.40308 4.84585 7.32171 4.76513C7.11814 4.56368 6.95141 4.3283 6.82883 4.06933C6.7285 3.85012 6.5676 3.66418 6.36509 3.53349H13.2913C12.9833 3.80651 12.7028 4.10909 12.4538 4.4367C12.2317 4.61509 11.9843 4.75956 11.7199 4.86532C10.5717 4.95293 9.17119 5.10136 8.89009 5.31688C8.55889 5.56763 8.50313 6.36743 8.51453 6.99433ZM4.93134 3.53362C5.03697 3.62294 5.16393 3.68338 5.2999 3.70896C5.48518 3.73547 6.15314 4.06918 6.23572 4.29117C6.36004 4.5801 6.53273 4.84584 6.74625 5.07669L6.54426 5.80405H6.42432C6.29271 5.80074 6.16906 5.74004 6.08596 5.63799C5.88504 5.38206 5.57795 5.23217 5.25261 5.23098H4.79986V3.53363L4.93134 3.53362ZM2.89986 1.63362C3.5991 1.63428 4.16581 2.201 4.16649 2.90024V16.6881C3.44737 16.0377 2.35236 16.0377 1.63324 16.6881V2.90024C1.63391 2.201 2.20063 1.63429 2.89986 1.63362ZM18.0999 19.3667H2.89986C2.20036 19.3667 1.63324 18.7996 1.63324 18.1001C1.63324 17.4006 2.20036 16.8335 2.89986 16.8335C3.59937 16.8335 4.16649 17.4006 4.16649 18.1001C4.16649 18.275 4.3083 18.4167 4.48324 18.4167C4.65805 18.4167 4.79986 18.275 4.79986 18.1001V10.493C4.84373 10.5024 4.88588 10.5187 4.92484 10.5411L4.96712 10.564C5.14419 10.6698 5.24889 10.8639 5.23987 11.0699V11.1364C5.23948 11.2758 5.2624 11.4143 5.3076 11.5462L5.76563 12.8892C5.87627 13.4424 6.71134 15.5099 6.33222 15.8969C6.16404 16.1028 6.12561 16.3855 6.23256 16.6289C6.32533 16.8379 6.53156 16.9734 6.76018 16.9758H7.44391C7.68976 16.9731 7.91097 16.8256 8.00797 16.5996L8.73968 14.9812C8.76393 14.9258 8.79322 14.8727 8.82715 14.8226L9.49697 13.8336C9.73738 13.4774 9.83944 13.0457 9.7843 12.6196L9.74998 12.3697C9.71459 12.1083 9.77131 11.8429 9.91008 11.6186C9.93738 11.5827 9.96548 11.5481 9.99331 11.5134L10.7791 10.5198C11.012 10.2273 11.2479 9.94087 11.483 9.65923C11.6783 9.46229 11.774 9.18742 11.7433 8.91175C11.6885 8.65145 11.5006 8.43926 11.2488 8.35325C10.9498 8.28699 10.6368 8.35127 10.3883 8.53018C10.3099 8.57472 10.2315 8.62229 10.1538 8.66961C10.1084 8.69744 10.0636 8.72461 10.0211 8.75006L9.14694 6.915C9.12998 6.54575 9.17464 6.17637 9.27895 5.82172C10.1167 5.64598 10.9669 5.53597 11.8219 5.49277C11.8571 5.49025 11.8918 5.48164 11.9242 5.46732C12.2607 5.32114 12.8479 5.03355 13.0035 4.7499C13.2963 4.40546 13.6129 4.08205 13.951 3.78202L14.6021 3.53339H16.1998V8.17753L16.1546 8.18337C15.8581 8.2222 15.6356 8.47375 15.633 8.77274V9.04205H15.3289C15.1218 9.04231 14.9292 9.14913 14.8193 9.32474L14.7228 9.48033C14.4575 9.89701 14.3902 10.4098 14.5389 10.8808L14.7769 11.6466L14.5763 11.7162C14.4171 11.7712 14.2889 11.8914 14.2237 12.0467C14.1596 12.2003 14.1638 12.3738 14.2351 12.5242L14.9356 14.0073H14.5058L13.6652 13.3399C13.5112 13.2176 13.3066 13.1797 13.1191 13.2388L11.8654 13.6161C11.6715 13.6778 11.5225 13.8342 11.4702 14.0309C11.418 14.2277 11.4697 14.4373 11.6075 14.5871L11.7832 14.7758C11.8485 14.8409 11.9269 14.8913 12.0132 14.9236L12.517 15.1005V15.6414C12.5179 15.7283 12.5369 15.8141 12.5727 15.8933L13.7476 18.3893C13.8475 18.5991 14.0588 18.733 14.2912 18.7338C14.3377 18.7338 14.3841 18.7283 14.4294 18.7173L16.0814 18.3281C16.1403 18.3135 16.1965 18.29 16.2484 18.2584C16.3031 18.3553 16.4053 18.4156 16.5165 18.4167C16.6005 18.4169 16.6811 18.3835 16.7404 18.3241C16.7998 18.2647 16.8332 18.1841 16.8332 18.1001C16.8332 17.4006 17.4003 16.8335 18.0998 16.8335C18.7993 16.8335 19.3665 17.4006 19.3665 18.1001C19.3665 18.7996 18.7994 19.3667 18.0999 19.3667Z" fill="#6E0BC6"/>
<path d="M18.1 1C17.0511 1.00119 16.2012 1.85113 16.2 2.9H4.8C4.8 1.85059 3.94941 1 2.9 1C1.85059 1 1 1.85059 1 2.9V18.1C1.00119 19.1489 1.85113 19.9988 2.9 20H18.1C19.1489 19.9988 19.9988 19.1489 20 18.1V2.9C19.9988 1.85113 19.1489 1.00119 18.1 1ZM16.8334 2.9C16.8334 2.20049 17.4005 1.63338 18.1 1.63338C18.7995 1.63338 19.3666 2.20049 19.3666 2.9V16.6879C18.6475 16.0374 17.5525 16.0374 16.8334 16.6879V2.9ZM15.4634 16.3897L15.3746 16.0081L16.2 16.4121V17.164L15.4634 16.3897ZM13.1505 15.6414V15.0745C13.1519 14.8222 12.9931 14.5967 12.7551 14.5128L12.2392 14.3363L12.1149 14.2027L13.2885 13.849L14.1089 14.5002C14.2164 14.591 14.3526 14.6407 14.4933 14.6406H14.9937C15.1967 14.6407 15.386 14.5375 15.4957 14.3666C15.6056 14.1957 15.6209 13.9807 15.5364 13.7961L14.8295 12.2987L15.0295 12.2294C15.3261 12.1207 15.4862 11.7993 15.3941 11.4972L15.1436 10.6919C15.0508 10.3975 15.0932 10.0771 15.2593 9.81705L15.3472 9.67537H15.6682C15.8931 9.67484 16.0987 9.54787 16.2 9.34695V15.7069L15.5912 15.4089C15.3826 15.3024 15.1309 15.328 14.9479 15.4741C14.7673 15.615 14.6857 15.8484 14.7391 16.0711L14.8508 16.5489C14.8768 16.6428 14.9248 16.7294 14.9905 16.8015L15.8635 17.7289L14.3093 18.095L13.1505 15.6414ZM8.51453 6.99433C8.51546 7.03939 8.52593 7.08379 8.54542 7.12448L9.47753 9.08148C9.54605 9.22448 9.67024 9.33329 9.82106 9.38233C9.97042 9.43044 10.1332 9.4144 10.2701 9.3378C10.3401 9.29817 10.4115 9.25457 10.4838 9.2107C10.5553 9.16709 10.6276 9.12283 10.7065 9.0783C10.8262 9.01216 10.9755 8.93052 11.0466 8.95372C11.0863 8.96869 11.1156 9.00275 11.1242 9.04437C11.1242 9.04649 11.123 9.10374 10.9978 9.25245C10.7587 9.53912 10.5197 9.82923 10.2825 10.1273L9.50043 11.116C9.46822 11.1559 9.43575 11.1961 9.39215 11.2552C9.163 11.6098 9.06731 12.0345 9.12218 12.4532L9.15624 12.6999C9.19176 12.9724 9.12708 13.2485 8.97401 13.4767L8.30524 14.4642C8.24997 14.5452 8.20226 14.6311 8.16264 14.7208L7.44389 16.3429H6.80441C6.80374 16.3302 6.80587 16.3197 6.8003 16.3227L6.88234 16.2399C7.02786 16.0754 7.08445 15.8505 7.03409 15.6369L6.38972 12.7816C6.38561 12.7562 6.37978 12.7311 6.37236 12.7065L5.90597 11.339C5.88411 11.2738 5.87297 11.2055 5.87324 11.1367V11.0702C5.88278 10.631 5.64979 10.2221 5.26717 10.0065L5.23152 9.98725C5.09899 9.91263 4.95161 9.86837 4.79985 9.85763V5.86424H5.25259C5.38817 5.8657 5.51527 5.93037 5.59612 6.03932C5.79982 6.28782 6.10304 6.4336 6.42431 6.4373H6.78521C6.92755 6.4373 7.05227 6.3424 7.09044 6.20537L7.40401 5.07473C7.43463 4.9642 7.40308 4.84585 7.32171 4.76513C7.11814 4.56368 6.95141 4.3283 6.82883 4.06933C6.7285 3.85012 6.5676 3.66418 6.36509 3.53349H13.2913C12.9833 3.80651 12.7028 4.10909 12.4538 4.4367C12.2317 4.61509 11.9843 4.75956 11.7199 4.86532C10.5717 4.95293 9.17119 5.10136 8.89009 5.31688C8.55889 5.56763 8.50313 6.36743 8.51453 6.99433ZM4.93134 3.53362C5.03697 3.62294 5.16393 3.68338 5.2999 3.70896C5.48518 3.73547 6.15314 4.06918 6.23572 4.29117C6.36004 4.5801 6.53273 4.84584 6.74625 5.07669L6.54426 5.80405H6.42432C6.29271 5.80074 6.16906 5.74004 6.08596 5.63799C5.88504 5.38206 5.57795 5.23217 5.25261 5.23098H4.79986V3.53363L4.93134 3.53362ZM2.89986 1.63362C3.5991 1.63428 4.16581 2.201 4.16649 2.90024V16.6881C3.44737 16.0377 2.35236 16.0377 1.63324 16.6881V2.90024C1.63391 2.201 2.20063 1.63429 2.89986 1.63362ZM18.0999 19.3667H2.89986C2.20036 19.3667 1.63324 18.7996 1.63324 18.1001C1.63324 17.4006 2.20036 16.8335 2.89986 16.8335C3.59937 16.8335 4.16649 17.4006 4.16649 18.1001C4.16649 18.275 4.3083 18.4167 4.48324 18.4167C4.65805 18.4167 4.79986 18.275 4.79986 18.1001V10.493C4.84373 10.5024 4.88588 10.5187 4.92484 10.5411L4.96712 10.564C5.14419 10.6698 5.24889 10.8639 5.23987 11.0699V11.1364C5.23948 11.2758 5.2624 11.4143 5.3076 11.5462L5.76563 12.8892C5.87627 13.4424 6.71134 15.5099 6.33222 15.8969C6.16404 16.1028 6.12561 16.3855 6.23256 16.6289C6.32533 16.8379 6.53156 16.9734 6.76018 16.9758H7.44391C7.68976 16.9731 7.91097 16.8256 8.00797 16.5996L8.73968 14.9812C8.76393 14.9258 8.79322 14.8727 8.82715 14.8226L9.49697 13.8336C9.73738 13.4774 9.83944 13.0457 9.7843 12.6196L9.74998 12.3697C9.71459 12.1083 9.77131 11.8429 9.91008 11.6186C9.93738 11.5827 9.96548 11.5481 9.99331 11.5134L10.7791 10.5198C11.012 10.2273 11.2479 9.94087 11.483 9.65923C11.6783 9.46229 11.774 9.18742 11.7433 8.91175C11.6885 8.65145 11.5006 8.43926 11.2488 8.35325C10.9498 8.28699 10.6368 8.35127 10.3883 8.53018C10.3099 8.57472 10.2315 8.62229 10.1538 8.66961C10.1084 8.69744 10.0636 8.72461 10.0211 8.75006L9.14694 6.915C9.12998 6.54575 9.17464 6.17637 9.27895 5.82172C10.1167 5.64598 10.9669 5.53597 11.8219 5.49277C11.8571 5.49025 11.8918 5.48164 11.9242 5.46732C12.2607 5.32114 12.8479 5.03355 13.0035 4.7499C13.2963 4.40546 13.6129 4.08205 13.951 3.78202L14.6021 3.53339H16.1998V8.17753L16.1546 8.18337C15.8581 8.2222 15.6356 8.47375 15.633 8.77274V9.04205H15.3289C15.1218 9.04231 14.9292 9.14913 14.8193 9.32474L14.7228 9.48033C14.4575 9.89701 14.3902 10.4098 14.5389 10.8808L14.7769 11.6466L14.5763 11.7162C14.4171 11.7712 14.2889 11.8914 14.2237 12.0467C14.1596 12.2003 14.1638 12.3738 14.2351 12.5242L14.9356 14.0073H14.5058L13.6652 13.3399C13.5112 13.2176 13.3066 13.1797 13.1191 13.2388L11.8654 13.6161C11.6715 13.6778 11.5225 13.8342 11.4702 14.0309C11.418 14.2277 11.4697 14.4373 11.6075 14.5871L11.7832 14.7758C11.8485 14.8409 11.9269 14.8913 12.0132 14.9236L12.517 15.1005V15.6414C12.5179 15.7283 12.5369 15.8141 12.5727 15.8933L13.7476 18.3893C13.8475 18.5991 14.0588 18.733 14.2912 18.7338C14.3377 18.7338 14.3841 18.7283 14.4294 18.7173L16.0814 18.3281C16.1403 18.3135 16.1965 18.29 16.2484 18.2584C16.3031 18.3553 16.4053 18.4156 16.5165 18.4167C16.6005 18.4169 16.6811 18.3835 16.7404 18.3241C16.7998 18.2647 16.8332 18.1841 16.8332 18.1001C16.8332 17.4006 17.4003 16.8335 18.0998 16.8335C18.7993 16.8335 19.3665 17.4006 19.3665 18.1001C19.3665 18.7996 18.7994 19.3667 18.0999 19.3667Z" stroke="#6E0BC6" stroke-width="0.4" mask="url(#path-5-outside-1_435_3569)"/>
</svg>
