<svg width="21" height="21" viewBox="0 0 21 21" fill="none" xmlns="http://www.w3.org/2000/svg">
<path d="M16.416 2.77332C16.6564 2.61624 16.927 2.57716 17.2393 2.66882C17.5702 2.76611 17.9639 3.01833 18.3818 3.47839L18.3848 3.4823C18.9681 4.11151 19.5258 5.09498 19.7881 6.11414C20.0523 7.14105 19.9937 8.10097 19.5029 8.7782C19.5143 8.76253 19.5 8.78421 19.4111 8.85632C19.327 8.92461 19.2041 9.01606 19.0381 9.13464C18.7069 9.37118 18.2221 9.69971 17.5635 10.1346C16.2468 11.0041 14.2533 12.2874 11.4424 14.0936L11.4414 14.0946C9.67525 15.2376 7.95114 16.3403 6.83984 17.0682L5.9541 17.6591C5.89419 17.6977 5.84597 17.7375 5.8252 17.7548C5.78959 17.7844 5.79121 17.7822 5.7998 17.7772C5.73178 17.817 5.60695 17.8458 5.3623 17.7479C5.11409 17.6485 4.80867 17.4412 4.46484 17.1239C3.78083 16.4925 3.04354 15.5178 2.42676 14.4628C1.8109 13.4093 1.32841 12.2857 1.11621 11.3778C1.00946 10.9211 0.979048 10.551 1.01367 10.285C1.0481 10.0211 1.13386 9.93212 1.19336 9.89734C1.20458 9.89078 1.2114 9.8868 1.29102 9.87L1.3457 9.85828L1.39648 9.83484C2.32444 9.40738 6.78097 7.45944 10.5615 5.69226L10.7734 5.59265L10.833 5.36609C10.9073 5.08216 10.9648 4.7322 10.9014 4.38171L10.9053 4.37195C10.9109 4.3553 10.9468 4.28218 11.0781 4.16003C11.2039 4.04308 11.3901 3.90604 11.6455 3.75671C11.8246 3.652 11.9252 3.63556 11.9639 3.63269L11.9707 3.6405C12.075 3.86531 12.2246 4.16636 12.4395 4.41687L12.6885 4.70691L13.0332 4.54382C14.616 3.79445 15.8877 3.14548 16.416 2.77332Z" fill="#98DB98" stroke="#1D771D"/>
<path d="M5.40926 16.0341C5.39257 15.955 5.3851 15.8408 5.37771 15.7267C5.35354 15.5334 5.33877 15.3052 5.26659 15.0806C5.21118 14.9353 5.09877 14.7935 5.00847 14.6391C4.90902 14.5195 4.84446 14.4091 4.76704 14.2766C4.70248 14.1662 4.68213 14.0299 4.63969 13.9068C4.5935 13.7263 4.54724 13.5461 4.45684 13.3915C4.36644 13.2368 4.23195 13.1082 4.0975 12.9793C4.01092 12.8818 3.90216 12.7972 3.8377 12.6869C3.76027 12.5544 3.69572 12.444 3.64032 12.2987C3.57195 12.1312 3.49452 11.9987 3.3822 11.8572C3.24403 11.6714 3.05236 11.5464 2.87372 11.4434C2.77793 11.381 2.69508 11.3403 2.62131 11.265C2.20857 10.9139 1.93962 10.6564 1.69675 10.7984C1.45388 10.9403 1.52415 11.314 1.64984 11.833C1.66653 11.9121 1.674 12.0263 1.68139 12.1404C1.70556 12.3337 1.72033 12.5619 1.79251 12.7865C1.84792 12.9318 1.96033 13.0735 2.05063 13.228C2.15008 13.3476 2.21464 13.458 2.29206 13.5905C2.35662 13.7009 2.37697 13.8372 2.41941 13.9603C2.4656 14.1408 2.51186 14.321 2.60226 14.4756C2.69266 14.6303 2.82715 14.7589 2.9616 14.8878C3.04818 14.9853 3.15694 15.0699 3.2214 15.1802C3.29883 15.3126 3.36338 15.4231 3.41878 15.5684C3.48715 15.7359 3.56458 15.8683 3.6769 16.0099C3.81507 16.1957 4.00674 16.3207 4.18538 16.4237C4.28117 16.4861 4.36402 16.5268 4.43779 16.602C4.85053 16.9532 5.11948 17.2107 5.36235 17.0687C5.5832 16.9396 5.51293 16.566 5.40926 16.0341ZM4.5757 16.4326C4.50209 16.3572 4.40621 16.2946 4.31042 16.2322C4.16676 16.1385 3.98797 16.0355 3.86267 15.8717C3.77609 15.7742 3.72069 15.6289 3.66528 15.4835C3.60988 15.3382 3.53245 15.2058 3.44205 15.0511C3.36462 14.9187 3.25586 14.8341 3.15641 14.7145C3.03478 14.6079 2.93533 14.4883 2.84493 14.3337C2.7675 14.2012 2.72131 14.0208 2.66589 13.8754C2.62336 13.7521 2.59014 13.5938 2.51271 13.4614C2.43528 13.3289 2.34489 13.1743 2.24543 13.0547C2.14598 12.9352 2.06855 12.8027 2.00399 12.6923C1.92275 12.5028 1.93373 12.3186 1.90955 12.1253C1.90216 12.0112 1.89453 11.897 1.86512 11.7958C1.81138 11.5013 1.71528 11.0835 1.80368 11.0318C1.89193 10.9802 2.20889 11.269 2.43927 11.4602C2.51288 11.5355 2.60876 11.5981 2.70455 11.6605C2.84821 11.7543 3.027 11.8572 3.1523 12.021C3.23888 12.1185 3.29429 12.2639 3.34969 12.4092C3.40509 12.5545 3.48252 12.687 3.55995 12.8194C3.63738 12.9519 3.74613 13.0364 3.84558 13.156C3.96721 13.2626 4.06667 13.3822 4.15707 13.5368C4.2345 13.6693 4.28069 13.8498 4.3361 13.9951C4.37863 14.1184 4.41186 14.2767 4.48929 14.4091C4.56671 14.5416 4.65711 14.6962 4.75657 14.8158C4.85603 14.9354 4.93345 15.0678 4.998 15.1783C5.07925 15.3678 5.06827 15.5519 5.09245 15.7453C5.09983 15.8594 5.10747 15.9735 5.13688 16.0747C5.19061 16.3692 5.28672 16.787 5.19832 16.8387C5.12294 16.9123 4.8061 16.6238 4.5757 16.4326Z" fill="#1D771D"/>
<path d="M4.89535 15.7124L4.87866 15.6333C4.87484 15.5763 4.85831 15.4971 4.84162 15.418C4.82126 15.2817 4.80076 15.1455 4.74551 15.0001C4.69392 14.9119 4.62936 14.8014 4.54279 14.7039C4.46918 14.6285 4.4175 14.5401 4.37878 14.4739C4.34007 14.4077 4.32338 14.3286 4.29388 14.2272C4.25134 14.1039 4.22193 14.0027 4.14451 13.8702C4.07995 13.7598 3.99337 13.6623 3.91961 13.587C3.846 13.5116 3.78501 13.4582 3.7463 13.392C3.69471 13.3037 3.64303 13.2153 3.62634 13.1362C3.59677 13.0351 3.53222 12.9247 3.48054 12.8363C3.38109 12.7167 3.27233 12.6321 3.16358 12.5475C3.10284 12.4942 3.04195 12.4409 2.99409 12.4096L2.93335 12.3562C2.67355 12.0638 2.51313 11.8908 2.33648 11.9941C2.15983 12.0974 2.23177 12.3219 2.3592 12.6919L2.37589 12.771C2.37971 12.828 2.39624 12.9072 2.41293 12.9863C2.43329 13.1226 2.45379 13.2588 2.50904 13.4042C2.56063 13.4924 2.62518 13.6029 2.71176 13.7004C2.78537 13.7758 2.83705 13.8642 2.87577 13.9304C2.91448 13.9966 2.93117 14.0757 2.96067 14.1771C3.0032 14.3004 3.03262 14.4016 3.11004 14.5341C3.18747 14.6665 3.26117 14.7421 3.34781 14.8394C3.42143 14.9147 3.48241 14.9681 3.52112 15.0344C3.57271 15.1226 3.62439 15.211 3.64108 15.2901C3.67065 15.3912 3.7352 15.5017 3.78688 15.5901C3.88633 15.7097 3.99509 15.7942 4.10384 15.8788C4.16458 15.9322 4.22547 15.9854 4.27334 16.0168L4.33408 16.0701C4.59387 16.3625 4.7543 16.5355 4.93094 16.4322C5.05973 16.2976 4.9878 16.0731 4.89535 15.7124ZM3.09045 12.8275L3.07758 12.8055C3.09045 12.8275 3.12544 12.8368 3.13831 12.8588C3.10342 12.8497 3.10342 12.8497 3.09045 12.8275ZM3.95317 14.1008L3.88862 13.9903C3.86278 13.9461 3.82788 13.937 3.82407 13.8799L3.79823 13.8357C3.85896 13.889 3.8848 13.9332 3.92352 13.9995C3.91446 14.0345 3.9403 14.0787 3.95317 14.1008ZM2.58032 12.5629C2.55075 12.4617 2.50837 12.3384 2.49168 12.2593C2.55242 12.3126 2.63915 12.4101 2.71277 12.4854L2.77351 12.5388C2.78638 12.5608 2.78638 12.5608 2.82137 12.5701C2.78647 12.561 2.75133 12.5518 2.70728 12.5775C2.66308 12.6033 2.65393 12.6382 2.64487 12.6733C2.632 12.6513 2.64105 12.6162 2.64105 12.6162L2.58032 12.5629ZM3.65863 14.1543C3.68447 14.1985 3.73224 14.2297 3.72318 14.2648C3.74902 14.309 3.75275 14.3659 3.75641 14.4231C3.76928 14.4451 3.76022 14.4801 3.7731 14.5022C3.76022 14.4801 3.72524 14.4708 3.71236 14.4488C3.6645 14.4175 3.61657 14.3864 3.59073 14.3422L3.52618 14.2318C3.50034 14.1876 3.48365 14.1085 3.45781 14.0643C3.43197 14.0201 3.38419 13.9889 3.34539 13.9225C3.31955 13.8783 3.27178 13.8471 3.25881 13.825C3.24594 13.8029 3.2201 13.7587 3.21628 13.7017C3.21247 13.6446 3.18671 13.6005 3.14791 13.5342C3.1092 13.4679 3.08336 13.4237 3.03549 13.3924C3.00965 13.3482 2.96188 13.317 2.97094 13.282C2.9451 13.2378 2.94137 13.1808 2.93771 13.1237C2.92484 13.1017 2.93389 13.0666 2.92102 13.0446C2.93389 13.0666 2.96888 13.0759 2.98176 13.0979C3.02962 13.1293 3.07755 13.1603 3.10339 13.2045L3.16794 13.315C3.19378 13.3592 3.21047 13.4383 3.23631 13.4825C3.26215 13.5267 3.30993 13.5578 3.34873 13.6242C3.37457 13.6684 3.42234 13.6996 3.43531 13.7218C3.46115 13.766 3.47402 13.788 3.47784 13.8451C3.48166 13.9022 3.50741 13.9462 3.54621 14.0126C3.60704 14.0661 3.63288 14.1103 3.65863 14.1543ZM2.69297 13.0599C2.70585 13.082 2.70585 13.082 2.69679 13.117C2.68391 13.095 2.69297 13.0599 2.6801 13.0379L2.69297 13.0599ZM3.24636 14.1586L3.40131 14.4236L3.34972 14.3354C3.26678 14.2946 3.26305 14.2377 3.24636 14.1586ZM4.64886 15.7973C4.67843 15.8985 4.7208 16.0219 4.73749 16.101C4.67675 16.0476 4.59002 15.9501 4.51641 15.8748L4.45567 15.8214C4.39493 15.7681 4.33404 15.7148 4.2733 15.6615C4.17751 15.5991 4.06891 15.5144 4.01723 15.426C3.97852 15.3597 3.92684 15.2713 3.89727 15.1702C3.86771 15.0691 3.80315 14.9587 3.75147 14.8703C3.71276 14.804 3.63906 14.7285 3.57817 14.6753L3.59104 14.6973C3.62594 14.7064 3.6389 14.7286 3.65178 14.7506L3.67762 14.7948C3.82509 14.9456 3.92454 15.0652 4.05699 14.9878C4.18944 14.9104 4.13419 14.7649 4.07497 14.5625L4.04913 14.5183C4.03626 14.4963 4.04531 14.4613 4.01956 14.4172L4.00669 14.3952C4.02338 14.4743 4.05288 14.5757 4.0916 14.6419C4.15615 14.7523 4.20774 14.8406 4.28144 14.9161C4.35505 14.9915 4.40673 15.0799 4.44545 15.1461C4.48798 15.2694 4.51739 15.3706 4.52502 15.4848C4.54171 15.5639 4.53622 15.6559 4.57494 15.7222L4.64886 15.7973Z" fill="#1D771D"/>
<path d="M18.755 3.13698C17.8409 2.13082 16.8833 1.86112 16.1365 2.35702C15.6545 2.69806 14.4235 3.32887 12.8225 4.08688C12.6363 3.86984 12.5036 3.59198 12.3965 3.35827C12.3707 3.31407 12.3449 3.27002 12.31 3.26072C12.2234 3.16317 11.971 2.98485 11.3968 3.32049C10.8448 3.64317 10.5211 3.95084 10.4348 4.20873C10.3815 4.26947 10.3853 4.32654 10.4018 4.40573C10.4647 4.6653 10.4262 4.95438 10.353 5.23419C6.56052 7.00696 2.1478 8.93481 1.19089 9.37561C1.11179 9.3923 1.0326 9.40883 0.944194 9.46051C-0.0273242 10.0285 0.733612 12.5461 1.99851 14.7098C3.26341 16.8736 5.06191 18.7846 6.05543 18.2038C6.12165 18.1651 6.175 18.1044 6.24123 18.0657C7.0856 17.4832 9.35226 16.0395 11.7165 14.5094C17.3372 10.8978 19.7013 9.36758 19.9109 9.06734C21.1412 7.37072 20.0377 4.52034 18.755 3.13698ZM2.4752 14.461C1.11992 12.1427 0.816299 10.3058 1.19344 9.93719C1.49538 9.9977 2.42163 10.3153 3.55509 11.6967C3.89242 12.1218 4.22414 12.6387 4.5598 13.2128C4.89536 13.7869 5.16095 14.3426 5.388 14.8321C6.0486 16.5196 5.85803 17.4605 5.76262 17.7533C5.29499 17.9671 3.84333 16.8014 2.4752 14.461ZM19.3128 8.77362C19.024 9.09058 14.7233 11.866 11.4447 13.9603C9.46505 15.236 7.56524 16.2884 6.5 17C6.55646 16.2857 6.39666 15.4698 5.92626 14.4117C6.14124 14.0195 6.5098 13.7614 6.5098 13.7614C6.15284 13.9108 5.911 13.8282 5.66982 13.821C5.51114 13.4991 5.33044 13.19 5.13688 12.8588C4.91747 12.4835 4.67603 12.1211 4.44732 11.7807C4.82431 11.4122 5.80942 10.9418 5.80942 10.9418C5.32916 11.1337 4.5666 11.3258 4.21878 11.4403C3.52756 10.5113 2.92017 9.83615 2.29206 9.52208C3.83972 8.82481 7.03948 7.31961 10.1879 5.8641C10.1879 5.8641 10.1659 5.87697 10.1788 5.89899C10.107 6.02977 10.1624 6.1751 10.3152 6.23393C10.446 6.30565 10.5914 6.25024 10.6502 6.09744C10.6593 6.06254 11.0415 5.24646 10.9837 4.53962C11.2653 4.46387 11.7236 4.28484 12.1356 3.92558C12.3808 4.34512 12.7864 4.93746 13.3257 4.94805C13.3828 4.94423 13.4048 4.93136 13.449 4.90552C13.5152 4.8668 13.5778 4.77092 13.5831 4.67895C13.5848 4.52981 13.4632 4.4232 13.3362 4.40856C13.3142 4.42144 13.3609 4.39984 13.3257 4.39062C14.8475 3.64916 15.8533 3.13036 16.3132 2.8022C17.0474 2.28418 17.9465 3.1321 18.28 3.5C19.5796 4.96234 20.267 7.41619 19.3128 8.77362Z" fill="#1D771D"/>
<path d="M11.5124 6.65994C11.5786 6.62122 11.597 6.55118 11.5583 6.48495C11.5195 6.41873 11.4495 6.40037 11.3833 6.43908L9.72734 7.40712C8.51295 8.11703 7.25452 8.8527 5.87232 9.27554C5.79322 9.29223 5.77476 9.36212 5.79145 9.44122C5.80815 9.52032 5.87803 9.53877 5.95713 9.52208C7.36134 9.08637 8.61993 8.35062 9.85635 7.62782L11.5124 6.65994Z" fill="#1D771D"/>
<path d="M12.1926 11.6243C11.8594 11.6116 11.5853 11.8016 11.3332 11.9785C10.6084 12.4615 9.85779 12.9004 9.07746 13.2379C9.01123 13.2766 8.99287 13.3467 8.9966 13.4036C9.00041 13.4607 9.10535 13.4882 9.16228 13.4844C9.96451 13.1339 10.7503 12.7043 11.4623 12.1992C11.6923 12.0352 11.9131 11.9061 12.1634 11.8782C12.2206 11.8747 12.2427 11.8618 12.2427 11.8618C12.2869 11.836 12.296 11.8011 12.3051 11.766C12.3106 11.674 12.2498 11.6206 12.1926 11.6243Z" fill="#1D771D"/>
<path d="M12.9403 7.98775C13.0066 7.94903 13.0599 7.8883 13.1041 7.86246C13.1261 7.84958 13.1354 7.8146 13.1575 7.80172C13.277 7.70227 13.4574 7.65592 13.6377 7.60982L13.7388 7.58026C14.0204 7.5045 14.3112 7.39384 14.5762 7.23889C14.7749 7.12275 14.9607 6.98458 15.1116 6.8371C15.1649 6.77636 15.1611 6.71929 15.1224 6.65306C15.0616 6.59971 15.0046 6.60353 14.9383 6.64224C14.5704 6.97575 14.138 7.19896 13.6539 7.33379L13.5528 7.36336C13.3503 7.42243 13.1349 7.45947 12.9621 7.61981C12.9401 7.63269 12.9087 7.68055 12.8867 7.69343C12.8554 7.74129 12.8113 7.76704 12.7892 7.78C12.6787 7.84456 12.5389 7.8079 12.3988 7.77117L12.259 7.73451L12.2665 7.84851C12.2335 8.04552 12.0478 8.18384 11.9154 8.26126C11.8271 8.31285 11.7387 8.36453 11.6376 8.39409C11.5272 8.45865 11.426 8.48821 11.3156 8.55277C11.2494 8.59148 11.231 8.66152 11.2698 8.72775C11.3085 8.79397 11.3785 8.81233 11.4447 8.77362C11.533 8.72203 11.6434 8.65748 11.7447 8.62782C11.8329 8.57623 11.9342 8.54658 12.0446 8.48203C12.1993 8.39163 12.3851 8.25347 12.4842 8.0176C12.6239 8.05435 12.7857 8.07814 12.9403 7.98775Z" fill="#1D771D"/>
<path d="M18.28 7.08806C18.1034 7.19133 17.9231 7.23743 17.7389 7.22671L17.6468 7.22122L17.5844 7.31701C17.5294 7.52689 17.3602 7.7444 17.1486 7.83837L17.1044 7.86421C17.0253 7.8809 16.9812 7.90665 16.915 7.94536C16.8708 7.9712 16.8174 8.03194 16.7732 8.05778L16.7419 8.10564C16.6353 8.22727 16.4457 8.30836 16.3132 8.38579L13.9655 9.63983C13.8993 9.67855 13.8809 9.74859 13.9196 9.81482C13.9583 9.88104 14.0284 9.8994 14.0946 9.86069L16.4423 8.60664L16.619 8.50337C16.7294 8.43882 16.8398 8.37426 16.9243 8.2656L16.9556 8.21774C16.9998 8.1919 17.009 8.157 17.0532 8.13116L17.2298 8.02789C17.4856 7.90793 17.6897 7.69973 17.7761 7.44198C17.9823 7.43983 18.1846 7.38086 18.3834 7.26463C18.4497 7.22592 18.468 7.15588 18.4293 7.08965C18.4163 7.06772 18.3242 7.06222 18.28 7.08806Z" fill="#1D771D"/>
<path d="M12.5844 5.35187L12.6193 5.36102C12.6413 5.34815 12.6764 5.35721 12.6764 5.35721L12.7371 5.41056L12.8604 5.36803L12.8825 5.35515C12.9267 5.32931 12.9578 5.28154 12.9413 5.20235C12.9246 5.12325 12.8547 5.10479 12.7976 5.10861C12.7498 5.07728 12.6927 5.0811 12.6356 5.08492L12.6007 5.07577C12.4738 5.06113 12.387 4.96367 12.3576 4.86245C12.3409 4.78335 12.271 4.7649 12.1919 4.78159C12.1128 4.79828 12.0944 4.86817 12.1111 4.94727C12.183 5.17179 12.3654 5.33174 12.5844 5.35187Z" fill="#1D771D"/>
</svg>
